<svg width="971" height="160" viewBox="0 0 971 160" fill="none" xmlns="http://www.w3.org/2000/svg">
<g clip-path="url(#clip0_2834_3353)">
<path d="M32.5731 0H126.675C126.775 4.89996 126.805 9.80115 126.76 14.7019C95.5736 14.7211 63.6588 14.3199 32.5459 14.753L32.5731 0Z" fill="#1D7AC0"/>
<path d="M76.0522 30.8382C102.934 28.8816 126.327 49.0414 128.364 75.9144C130.4 102.787 110.308 126.241 83.4399 128.356C56.4593 130.479 32.8846 110.286 30.8403 83.3011C28.796 56.3162 49.0596 32.803 76.0522 30.8382ZM111.946 75.3724C109.655 57.5271 93.3084 44.9311 75.4682 47.2591C57.6756 49.5806 45.1224 65.8678 47.4086 83.6634C49.6954 101.46 65.9588 114.045 83.7602 111.793C101.613 109.535 114.24 93.2178 111.946 75.3724Z" fill="#1D7AC0"/>
<path d="M0 32.8492L14.9178 32.8223L14.9465 126.751L0.0249776 126.778L0 32.8492Z" fill="#1D7AC0"/>
<path d="M144.327 32.8331L159.141 32.8008L159.204 126.663C156.716 126.974 147.203 126.773 144.327 126.759V32.8331Z" fill="#1D7AC0"/>
<path d="M32.5386 144.458L126.678 144.409C126.771 149.31 126.801 154.212 126.768 159.114C116.68 159.563 104.15 159.242 93.8798 159.242L32.5595 159.263L32.5386 144.458Z" fill="#1D7AC0"/>
<path d="M237.204 34.6875L253.557 34.7166L253.574 110.026C266.497 110.013 279.91 109.805 292.79 110.003L292.812 124.499L237.204 124.525V34.6875Z" fill="#242223"/>
<path d="M710.008 33.2862C735.58 30.9784 758.198 49.7974 760.578 75.3614C762.954 100.925 744.197 123.593 718.64 126.042C692.982 128.5 670.204 109.654 667.816 83.9903C665.429 58.3268 684.339 35.6031 710.008 33.2862ZM716.667 111.437C756.34 106.473 749.849 44.283 711.336 47.8868C703.36 49.1663 695.698 52.2806 691.173 59.2315C676.986 81.0172 687.853 113.133 716.667 111.437Z" fill="#242223"/>
<path d="M817.355 34.6532C827.42 34.6331 837.414 33.7832 846.572 38.8544C859.864 46.1593 863.352 64.9204 855.962 77.5741C851.806 84.6903 846.434 87.4126 838.847 89.3866C845.871 100.989 853.862 112.857 860.577 124.535L847.416 124.483L841.559 124.532C835.351 113.46 828.413 102.364 822.026 91.29C817.057 91.3038 812.084 91.351 807.115 91.4316C806.996 102.377 807.119 113.554 807.123 124.518L790.481 124.507L790.467 34.706L817.355 34.6532ZM833.68 50.164C826.54 48.3504 814.822 49.2352 807.13 49.287V76.7489C816.284 76.7926 832.005 78.6345 839.052 72.62C845.468 65.2625 843.636 52.6935 833.68 50.164Z" fill="#242223"/>
<path d="M477.227 34.6807L493.618 34.7157L493.66 92.3687C493.661 96.4638 494.076 123.425 493.019 124.532C488.072 124.411 482.868 124.521 477.898 124.558L431.898 61.5879L431.888 124.532L415.616 124.457C414.981 95.3943 415.578 63.9484 415.583 34.7116L432.117 34.6896C447.139 54.1745 462.714 75.9911 477.303 95.9091C477.612 76.0049 477.262 54.665 477.227 34.6807Z" fill="#242223"/>
<path d="M929.833 33.4026C946.284 31.8706 961.172 38.8468 970.364 52.5249C966.231 54.4903 960.866 57.6461 956.755 59.9245C956.558 59.6115 956.349 59.3053 956.129 59.0061C946.713 46.1006 928.359 44.434 915.776 53.6559C901.615 64.033 899.646 86.2312 909.916 99.9182C914.624 106.199 921.652 110.33 929.43 111.385C938.857 112.664 947.224 109.515 954.622 103.848L954.569 90.4583L928.064 90.4509L928.005 80.5292L928.008 75.7877L970.942 75.8205L970.935 109.93C962.698 119.218 951.19 124.964 938.819 125.969C925.908 127.131 912.042 123.659 902.332 115.243C875.297 91.8046 884.239 43.9054 920.063 35.0114C923.595 34.1344 926.255 33.7208 929.833 33.4026Z" fill="#242223"/>
<path d="M322.269 34.707L384.25 34.6973L384.304 49.2698L338.706 49.2997L338.688 71.4874L383.289 71.5251L383.283 85.9962L344.983 85.9701L338.692 86.0365L338.695 110.017L384.291 110.002C384.317 114.855 384.308 119.708 384.263 124.56L322.261 124.521L322.269 34.707Z" fill="#242223"/>
<path d="M555.799 33.4046C556.241 33.3703 556.684 33.3502 557.127 33.3438C570.209 33.1972 582.515 37.1035 591.946 46.3608C588.734 49.8855 585.389 54.4349 582.431 58.2588C574.749 51.5988 567.436 48.2286 556.992 47.9003C550.451 47.6948 541.428 51.1214 541.632 59.2122C542.181 65.5126 553.001 68.101 557.854 69.3629C573.248 73.3047 594.065 77.766 593.72 97.9764C593.339 120.28 575.096 126.164 556.392 126.087C542.005 125.122 532.228 121.855 521.914 111.601C524.839 107.972 528.401 102.784 531.23 98.9247C531.961 99.7002 532.716 100.453 533.494 101.181C541.065 108.207 550.288 111.741 560.738 111.491C567.58 111.328 577.352 107.818 576.938 99.4197C576.267 91.415 566.111 89.3626 559.958 87.6485C550.548 85.0277 540.008 83.2484 532.346 76.8622C522.741 68.8564 522.707 53.0861 530.875 44.0421C537.723 36.4597 545.901 34.1484 555.799 33.4046Z" fill="#242223"/>
<path d="M629.168 106.623C634.391 105.847 639.278 109.387 640.173 114.593C641.065 119.798 637.636 124.764 632.451 125.773C628.993 126.447 625.442 125.195 623.166 122.502C620.894 119.809 620.26 116.097 621.502 112.801C622.748 109.504 625.68 107.141 629.168 106.623Z" fill="#242223"/>
</g>
<defs>
<clipPath id="clip0_2834_3353">
<rect width="970.942" height="159.353" fill="white"/>
</clipPath>
</defs>
</svg>
