<svg width="211" height="50" viewBox="0 0 211 50" fill="none" xmlns="http://www.w3.org/2000/svg">
<g clip-path="url(#clip0_2834_3262)">
<path d="M69.9537 22.7051C72.4529 22.5319 79.4127 21.9812 80.7237 24.8553C81.9094 27.4549 80.8482 29.3735 78.4484 30.7002C80.013 31.7578 80.2634 32.1247 80.5337 33.9906C80.7641 35.5815 81.1803 37.1689 81.3619 38.786L81.1609 39.0047C80.5554 39.129 79.8465 39.1803 79.2926 38.8648C78.7815 38.3708 78.7473 37.3096 78.6291 36.5552C78.3658 35.8858 78.793 33.5648 77.674 32.5204C76.499 31.4238 73.6154 31.7679 71.9923 31.794C71.9782 34.2295 71.9871 36.6649 72.0194 39.1002L69.7846 39.078C69.6861 37.1255 69.5975 23.466 69.9537 22.7051ZM71.9662 29.775C74.0516 29.7662 76.3011 30.0233 78.141 29.063C78.736 28.4409 78.7269 27.9481 78.7347 27.141C78.7671 23.8346 74.1283 24.8699 71.9659 24.7532L71.9662 29.775Z" fill="#A1A1A1"/>
<path d="M185.233 27.4102C186.786 27.4775 188.033 27.6576 189.2 28.7982C191.538 31.0926 191.712 35.5399 189.328 37.8783C188.047 39.1351 187.027 39.3573 185.293 39.3866C183.767 39.3848 182.558 39.2033 181.363 38.1522C178.446 35.5899 178.867 29.4104 182.72 27.8876C183.685 27.5062 184.174 27.4771 185.233 27.4102ZM185.664 37.8879C189.386 37.2265 189.14 32.1382 187.451 29.6728C186.509 29.2033 186.104 28.9736 185.019 28.9926C182.661 29.3743 182.056 30.7682 181.932 32.9537C181.786 35.5436 182.54 38.0011 185.664 37.8879Z" fill="#A1A1A1"/>
<path d="M199.027 27.401C201.272 27.4986 201.222 27.83 203.068 28.9998C203.433 28.9933 204.187 28.2758 204.568 28.0677C207.313 26.5648 209.291 27.3832 210.88 29.8048C211.063 32.5559 211.027 36.344 210.955 39.135C210.361 39.1528 209.505 39.1029 208.892 39.0863C208.841 37.501 209.249 30.3226 208.138 29.7394C202.498 26.7801 203.455 33.9084 203.486 36.4555L203.48 39.0685C202.781 39.0956 201.962 39.0765 201.253 39.0781C201.106 37.2356 201.221 35.1815 201.217 33.3168C201.209 30.0417 200.707 28.522 197.101 29.395C196.935 29.5423 196.775 29.695 196.619 29.8529C194.75 31.7431 196.542 37.9418 195.496 38.9949C194.994 39.1665 194.064 39.0956 193.498 39.0799C193.459 35.3542 193.466 31.6282 193.518 27.9028C194.115 27.8486 194.863 27.6018 195.34 27.8281C195.65 28.0611 195.702 28.5352 195.79 28.9227C197.096 27.8536 197.346 27.6226 199.027 27.401Z" fill="#A1A1A1"/>
<path d="M93.7119 4.75366C96.0127 4.65427 97.0034 4.52564 98.8681 6.01926C99.521 7.38563 99.5873 7.94739 99.5837 9.47562C99.5782 11.7992 99.588 14.1205 99.5346 16.4445C98.9898 16.4524 98.1746 16.5001 97.6607 16.387C97.5952 16.3726 97.327 15.7171 97.2244 15.5331C96.3485 15.435 93.1315 18.9164 90.2587 14.9808C89.6941 14.1781 90.0633 12.4786 90.232 11.58C92.9977 8.63981 93.4195 9.87849 96.979 9.14542C97.167 8.99749 97.2222 9.01838 97.2621 8.79024C97.657 6.52858 95.1985 5.51202 93.5371 6.80916C93.0679 7.1796 92.7595 8.06028 92.0893 8.10798C91.503 8.14969 90.9919 8.27935 90.6569 7.75581C90.6365 7.25053 91.0459 6.4115 91.2553 5.91121C92.2032 5.2459 92.5827 5.00833 93.7119 4.75366ZM93.661 15.1802C96.8398 15.2889 97.0622 13.7145 97.3866 10.9942L96.0925 10.9742C94.7975 11.004 93.5354 11.0191 92.5684 12.0024C91.3385 13.2532 92.5483 14.5178 93.661 15.1802Z" fill="#A1A1A1"/>
<path d="M123.472 27.4129C128.994 27.252 128.173 31.2451 128.104 35.0996C128.089 35.9366 128.475 38.5155 128.07 38.992C127.548 39.2044 126.869 39.1064 126.296 39.0709L125.803 38.052C123.456 39.9614 120.002 40.0923 118.566 37.0919C118.364 35.8019 118.484 35.3688 118.873 34.1113C121.533 31.5157 122.89 32.3804 125.797 31.9799C126.57 31.3085 125.833 29.5789 124.744 29.1653C124.043 28.9032 123.267 28.9279 122.585 29.2341C121.777 29.5996 121.649 29.9772 121.359 30.7473L119.239 30.6866C119.345 30.1733 119.572 29.4528 119.722 28.9319C121.152 27.6023 121.587 27.5741 123.472 27.4129ZM123.28 37.9285C125.702 37.39 125.927 35.837 126.037 33.5896C125.414 33.58 124.299 33.5333 123.72 33.6013C122.776 33.7335 121.758 33.8602 121.228 34.7261C120.012 36.7141 121.431 37.7946 123.28 37.9285Z" fill="#A1A1A1"/>
<path d="M125.22 4.7495C128.533 4.51015 131.201 5.46159 131.435 10.3631C131.526 12.2635 124.994 10.3683 123.413 11.3879C123.266 11.5994 123.112 11.7537 123.193 12.0417C123.932 14.6764 124.742 15.5375 127.494 15.0347C128.219 14.3676 128.536 14.1239 128.769 13.1692C129.249 12.83 130.414 12.9012 131.044 12.8941C130.893 13.5866 130.633 14.5176 130.215 15.085C128.821 17.0734 124.935 17.3122 123.066 15.9482C120.22 13.8712 120.276 7.94728 122.948 5.72828C123.71 5.09586 124.277 4.91131 125.22 4.7495ZM127.1 9.56044L129.081 9.52371C128.581 7.32131 128.1 6.09135 125.491 6.34727C124.527 6.72666 123.136 7.95046 123.229 9.03941C123.802 9.89085 126.069 9.57653 127.1 9.56044Z" fill="#A1A1A1"/>
<path d="M110.468 27.522C111.592 27.4442 112.619 27.3726 113.7 27.7504C114.812 28.1346 115.723 28.9519 116.225 30.0168C116.733 31.0722 117.034 32.6977 116.637 33.8365C115.531 33.8257 108.786 33.5121 108.73 34.2315C108.482 37.3922 110.87 38.4204 113.359 37.5379C113.718 36.94 113.959 36.4846 114.264 35.8565C115.03 34.9845 117.402 35.0702 116.028 37.3456C114.674 39.5875 110.597 40.0403 108.625 38.6755C104.967 36.1427 105.662 28.5458 110.468 27.522ZM112.36 32.3751C112.913 32.3593 113.576 32.403 114.032 32.1136C114.617 31.304 114.113 30.6011 113.694 29.791C113.294 29.5244 112.888 29.2447 112.475 29.0027C111.96 28.9989 111.225 28.9738 110.728 29.0036C109.825 29.4871 108.47 30.7028 108.704 31.8346C109.305 32.6911 111.323 32.393 112.36 32.3751Z" fill="#A1A1A1"/>
<path d="M88.8258 27.4145C88.8886 27.4031 88.9385 27.3983 89.0023 27.3996C92.8622 27.4805 94.0094 30.3159 93.9039 33.8149C92.6131 33.8499 86.5847 33.5304 85.9212 34.1467C85.8174 34.9151 85.9794 35.9849 86.4374 36.6285C86.925 37.3224 87.6724 37.7898 88.5098 37.924C91.1042 38.3506 90.9171 36.1639 91.8272 35.5076C92.2905 35.462 92.754 35.369 93.1625 35.5941C93.3075 35.7667 93.5724 36.0399 93.5244 36.2767C92.8392 39.6564 87.4644 40.2697 85.2626 38.3105C82.9613 36.263 82.9352 31.4256 84.8701 29.1915C86.0433 27.8371 87.1251 27.5393 88.8258 27.4145ZM89.6452 32.3783C90.559 32.3659 90.9947 32.5572 91.4864 31.7666C91.5841 31.0112 91.0603 30.2282 90.6819 29.5868C89.5205 28.9581 89.3772 28.9189 88.0559 29.0269C87.0372 29.4492 85.7131 30.5673 85.8082 31.764C86.3698 32.7277 88.5586 32.3898 89.6452 32.3783Z" fill="#A1A1A1"/>
<path d="M150.481 39.096C150.361 35.9821 150.48 32.5809 150.433 29.4287C150.413 28.1081 150.356 24.0924 150.572 22.943C150.859 22.7247 151.923 22.5974 152.276 22.6235L152.481 22.88C152.569 24.0727 152.357 28.0116 152.747 28.687L152.943 28.722L153.242 28.5053C155.18 27.2548 156.179 27.2517 158.462 27.6913C158.863 28.08 159.562 28.7235 159.893 29.1314C160.325 31.342 160.399 36.8682 160.158 39.0758C159.455 39.0848 158.785 39.1031 158.084 39.0476C158.071 36.4848 158.152 33.8979 158.01 31.3461C157.972 30.6496 157.665 30.105 157.331 29.5155C155.289 28.8817 153.753 28.8763 152.779 31.15C152.371 32.2282 152.485 37.7808 152.559 39.1122L150.481 39.096Z" fill="#A1A1A1"/>
<path d="M100.041 27.4033C101.721 27.4345 104.173 28.0632 104.66 29.9435C104.458 31.1159 103.559 30.9191 102.595 30.8733C102.267 30.5342 102.075 30.1037 101.775 29.7409C100.722 28.4707 99.4026 28.7959 98.2731 29.7159C97.867 30.0467 97.8071 30.2245 97.7596 30.7012C98.4828 32.5721 102.521 32.3962 103.888 33.5415C104.633 34.1661 104.81 34.93 105.104 35.8167C104.158 38.5477 102.915 39.3245 100.033 39.3854C98.7299 39.3558 97.6457 39.2837 96.6236 38.4113C94.9297 36.966 94.8207 35.9172 97.2337 35.6679C97.6823 36.2773 97.9888 36.9129 98.6139 37.3614C99.686 38.1305 101.378 38.2044 102.128 36.9208C103.627 34.3567 99.3656 34.2702 97.9382 33.7323C97.358 33.5136 96.9972 33.3305 96.452 33.0029C95.6913 31.8159 95.6276 31.3274 95.6869 29.9618C96.6996 27.9553 97.9155 27.6288 100.041 27.4033Z" fill="#A1A1A1"/>
<path d="M142.614 27.523C143.973 27.3879 144.894 27.4594 146.164 27.9997C147.236 28.4571 148.429 30.3174 147.875 31.3931C147.49 31.5447 146.619 31.4079 146.168 31.3658C145.191 29.2302 145.025 28.7555 142.54 29.1499C140.554 30.4179 140.887 32.7523 140.959 34.7916C141.044 37.1966 143.749 39.303 145.529 36.9725C145.627 36.621 145.984 35.783 146.135 35.4065C147.015 35.3387 147.549 35.0747 148.089 35.8151C148.205 36.3943 148.073 36.6988 147.75 37.1982C147.073 38.2608 145.997 39.0055 144.764 39.2643C136.977 40.8999 136.421 28.7691 142.614 27.523Z" fill="#A1A1A1"/>
<path d="M172.14 27.5536C173.266 27.466 174.383 27.3817 175.478 27.7204C176.609 28.0703 178.394 30.1317 177.952 31.3232C177.566 31.5418 176.606 31.4412 176.11 31.4214C174.994 29.2313 173.832 27.8846 171.463 29.828C170.486 32.505 170.056 34.8165 171.799 37.3429C173.058 38.0098 174.224 38.2224 175.362 37.1333C175.61 36.6999 175.861 35.8585 176.029 35.3513C176.93 35.3366 177.559 35.1095 178.006 35.9762C178.01 36.987 176.593 38.6674 175.649 38.996C169.909 40.9955 167.138 35.8523 168.774 30.8677C169.337 29.1533 170.624 28.2207 172.14 27.5536Z" fill="#A1A1A1"/>
<path d="M135.476 2.02612C135.935 2.01706 135.886 1.94663 136.207 2.17423C136.341 2.84993 136.262 4.15342 136.293 4.9616C137.007 4.99536 138.174 4.76554 138.638 5.11944C138.914 5.47431 138.941 5.55056 138.938 6.00004C138.386 7.22409 137.166 6.18981 136.498 6.74653C135.996 8.27966 135.951 13.4503 136.721 15.059C137.535 15.0433 138.322 14.8481 138.64 15.7116C138.584 16.1995 138.573 16.328 138.359 16.7674C137.968 16.7977 137.576 16.8128 137.184 16.8128C134.176 16.8178 133.825 15.0355 133.913 12.5543C133.982 10.6066 133.964 8.57704 133.969 6.62424L132.082 6.58664L132.051 4.91885C132.683 4.95481 133.355 4.95924 133.99 4.97302C133.964 4.22847 133.989 3.37242 133.993 2.61877C134.599 2.44787 134.913 2.29275 135.476 2.02612Z" fill="#A1A1A1"/>
<path d="M107.827 4.91002L108.569 4.85645C109.319 5.21964 109.069 6.11461 109.036 6.90259C103.558 6.42991 104.993 12.5766 105.004 16.4713C104.432 16.4683 103.254 16.5427 102.844 16.2294C102.792 12.8869 102.716 8.27614 102.882 4.99601L104.991 4.96453C104.99 5.41325 104.942 5.97073 105.146 6.35746C106.488 5.3422 105.984 5.18433 107.827 4.91002Z" fill="#A1A1A1"/>
<path d="M136.556 27.6482L137.197 27.5859C137.893 27.9361 137.735 28.7087 137.771 29.4574C136.908 29.4942 135.192 29.5815 134.614 30.1967C133.142 31.7624 133.575 36.9221 133.56 39.0946C132.885 39.1037 132.065 39.1388 131.411 39.0382C131.291 35.8746 131.314 31.0369 131.436 27.8859C132.126 27.8855 132.817 27.7591 133.499 27.6551L133.71 29.439C134.657 28.2109 135.021 27.9594 136.556 27.6482Z" fill="#A1A1A1"/>
<path d="M163.682 36.4429L166.097 36.3672C166.234 37.4237 166.304 38.0989 166.062 39.1373C165.364 39.1653 164.24 39.095 163.511 39.0723C163.495 38.7231 163.482 38.3739 163.474 38.0246C163.466 37.5998 163.399 36.7386 163.682 36.4429Z" fill="#A1A1A1"/>
<path d="M152.779 31.1494C153.23 33.1419 153.101 37.0118 152.912 39.0576L152.694 39.1847L152.559 39.1115C152.485 37.7801 152.371 32.2276 152.779 31.1494Z" fill="#A1A1A1"/>
<path d="M152.481 22.88L152.681 22.6963C153.279 23.1691 152.844 27.1817 153.243 28.5053L152.943 28.722L152.747 28.687C152.357 28.0117 152.569 24.0727 152.481 22.88Z" fill="#A1A1A1"/>
<path d="M20.0247 19.9981C23.2002 20.0266 26.8918 20.0918 30.0335 19.9648C30.0037 26.6549 30.0092 33.345 30.0504 40.0351L20.0418 40.0371C19.8607 37.4355 19.9645 33.4573 19.971 30.772C19.9789 27.4011 19.8607 23.3175 20.0247 19.9981Z" fill="#A1A1A1"/>
<path d="M0 0H50.0039L50.0078 32.6526C50.0082 38.3192 50.0978 44.254 49.9904 49.8983C47.0955 47.2327 44.3669 44.339 41.5593 41.5796C41.0352 41.0646 40.5411 40.5227 40.0685 39.9597C39.9849 37.6591 39.9961 35.2593 40.024 32.9503C40.1165 25.3073 39.9027 17.6054 40.0383 9.9685L9.97154 9.97043L9.9755 29.6487C9.97591 32.9552 10.0658 36.7936 9.95358 40.0577C7.16448 43.0014 4.18041 45.8083 1.32705 48.6926C0.905815 49.1185 0.49606 49.4968 0 49.8348V0Z" fill="#A1A1A1"/>
<path d="M69.954 0H74.0008C75.3803 3.94892 76.6365 7.92811 78.1678 11.8235C78.3699 12.3376 78.5516 12.8593 78.7191 13.3858L81.4567 5.50005C81.9528 4.08922 83.0114 1.33694 83.2176 0H87.0858L87.0905 10.7132C87.0911 12.4562 87.1567 14.7465 87.0676 16.4532L84.9144 16.4535C84.7131 12.2273 84.9365 7.69725 84.8424 3.43474C84.8601 3.001 84.8678 2.87755 84.7581 2.45911C84.4751 2.63214 84.3179 3.19583 84.1626 3.5614C83.6793 5.32833 80.1116 15.4367 79.4302 16.4278L77.8149 16.4376C77.6313 16.2309 77.2426 15.8288 77.1519 15.5875C75.4338 11.0124 73.9367 6.39881 72.1544 1.84136C71.798 5.9544 72.2022 12.0534 72.0354 16.4539L70.0005 16.4552C69.8711 14.6893 69.9359 12.1915 69.9377 10.3825L69.954 0Z" fill="#A1A1A1"/>
<path d="M110.894 0H113.008L113.026 9.41878C113.55 8.93328 114.082 8.46135 114.562 7.94414C115.524 6.90893 116.276 5.45554 117.726 5.05306C118.246 4.90887 119.353 5.012 119.916 5.04375C118.419 6.3874 116.898 8.18399 115.277 9.6644C116.451 11.7348 118.775 14.088 120.156 16.3689L117.757 16.4504C116.974 15.8446 113.86 11.5307 113.074 10.4859C112.957 12.2638 113.043 14.591 113.013 16.4322C112.45 16.4729 111.506 16.4395 110.914 16.4364C110.776 14.7097 110.85 12.0578 110.849 10.2785C110.83 6.85225 110.845 3.42593 110.894 0Z" fill="#A1A1A1"/>
<path d="M84.1626 3.56128C84.3178 3.19571 84.4751 2.63202 84.7581 2.45898C84.8678 2.87742 84.8601 3.00087 84.8424 3.43462C84.693 3.60611 84.6124 3.85114 84.5263 4.06509L84.1626 3.56128Z" fill="#A1A1A1"/>
</g>
<defs>
<clipPath id="clip0_2834_3262">
<rect width="211" height="50" fill="white"/>
</clipPath>
</defs>
</svg>
