<svg width="84" height="50" viewBox="0 0 84 50" fill="none" xmlns="http://www.w3.org/2000/svg">
<g clip-path="url(#clip0_2834_3287)">
<path d="M84 36.0293L75.7471 36.0234L75.751 20.0781L75.75 15.3428C75.7496 14.6018 75.7107 13.4529 75.7764 12.7607C75.6801 12.8678 75.5534 12.9756 75.4443 13.0723C75.4406 13.2212 75.4496 13.5421 75.3877 13.6592C75.3641 13.6639 75.2171 13.6994 75.2109 13.7178C74.8611 15.1226 74.347 16.4513 73.877 17.8145L72.6943 21.2949L69.3291 31.2275C69.147 31.7747 67.9283 35.6606 67.6904 35.9648C67.3794 36.0768 62.721 36.0518 62.1406 35.9971C61.9064 34.9476 61.513 34.0764 61.1787 33.0703L58.9316 26.3643L57.2051 21.1855C56.8048 20.0001 56.3867 18.8488 56.0146 17.6465C55.6665 16.5215 55.1796 15.4123 54.8818 14.2568C54.7842 13.878 54.5283 13.3612 54.3613 12.999C54.2813 13.7687 54.3179 14.9724 54.3184 15.7803L54.3213 20.5547L54.3193 36.0293L50.7812 36.0342C50.5548 35.1361 50.1125 34.936 49.5547 34.2715L47.0771 31.3125C47.3077 30.5944 47.8055 30.0187 48.0762 29.3564C48.6528 27.9012 49.2002 26.2737 49.3359 24.7021C49.4192 23.7389 49.5188 22.1994 49.3457 21.2842C48.7235 20.5096 46.975 20.7581 46.0127 20.749V0H56.8994C57.602 2.0951 58.244 4.31001 58.915 6.42285L62.9844 19.1602L64.376 23.6123C64.5351 24.1332 64.6811 24.8136 64.8477 25.2939C65.3872 24.6236 65.7555 22.7684 66.0684 21.8311L70.9746 6.66797L72.3125 2.41699C72.5327 1.69845 72.8001 0.680686 73.0498 0H84V36.0293Z" fill="#A1A1A1"/>
<path d="M14.6201 0C14.7098 0.120272 14.7183 0.155424 14.8838 0.166992C19.1127 0.462731 23.4524 2.67386 25.124 6.79395C25.7585 8.35798 25.8753 10.3986 25.7266 12.0693C25.4501 15.1728 22.963 17.7482 20.1074 18.8135C20.8081 19.1206 21.6509 19.4525 22.3193 19.7871C23.2139 20.2348 24.3327 21.2936 24.875 22.1377C25.1069 22.4988 25.3336 22.9963 25.5127 23.3994C22.7361 26.6848 23.3874 32.3531 26.5947 35.0967C26.9098 35.3662 27.477 35.802 27.8379 35.9854C27.1235 36.0704 24.9305 36.0445 24.1172 36.0283C22.7491 36.0012 20.891 36.0956 19.5654 36.0146C18.1496 34.6385 18.25 33.1866 18.1035 31.3164C18.0511 30.648 17.9493 29.9751 17.9375 29.3027C17.8813 27.137 18.2727 25.3175 16.6318 23.5684C16.2405 23.1515 15.2868 22.59 14.75 22.4648C12.7652 22.0022 10.3085 22.1809 8.25488 22.1523L8.24707 30.9326C8.24723 32.6049 8.22273 34.3605 8.25586 36.0264L0 36.0293V0H14.6201ZM8.25391 6.41797L8.25195 15.7656L11.7461 15.7754C12.1524 15.7761 13.3624 15.8037 13.6875 15.7334C14.5408 15.5487 15.687 15.1605 16.3311 14.5664C18.0864 12.8185 17.9734 9.55622 16.2646 7.80957C15.1427 6.6628 13.4345 6.41245 11.8955 6.40918L8.25391 6.41797Z" fill="#A1A1A1"/>
<path d="M29.9575 8.69815C33.1171 6.4246 38.4289 6.45747 40.8755 9.83975C43.1213 12.9447 42.4725 17.8451 39.4937 20.2489C39.0656 20.5943 37.7101 21.3959 37.5142 21.7099C37.5218 21.9696 41.4336 26.3071 42.0142 27.0009C42.7745 25.7723 43.4398 23.3538 43.4956 21.8964C45.1416 21.9071 46.7881 21.9086 48.4341 21.9013C48.464 25.2178 47.7971 28.6107 45.7046 31.2616C46.4736 32.3155 47.3282 33.2209 48.1665 34.2265C48.8125 35.0013 49.0529 35.0915 49.6304 36.0478L44.9575 36.0575C44.4187 36.0584 42.9633 36.0912 42.4986 36.0224C41.7389 35.4624 41.6955 35.1193 41.1528 34.4745C40.3097 34.9118 39.653 35.3292 38.7612 35.6855C37.9479 36.0104 37.1558 36.1107 36.3823 36.3563C36.5327 36.3725 37.5615 36.4856 37.6187 36.5292H30.3237C30.871 36.3453 31.0594 36.5391 31.4712 36.289C29.6272 35.8842 28.4204 35.396 27.0405 33.9989C26.5687 33.5212 26.2949 33.2387 25.8989 32.6464C24.7997 30.9538 24.6926 28.5363 25.0308 26.5849C25.3387 24.8081 27.0049 23.0931 28.3198 21.9589C28.7946 21.5494 29.0497 21.0775 29.6782 20.9081C27.963 18.7843 27.0719 16.3601 27.3892 13.6356C27.5102 11.772 28.3964 9.8216 29.9575 8.69815ZM32.7808 25.0292C31.892 25.8186 31.5409 26.5322 31.4234 27.7382C31.2392 29.6278 32.4258 31.2989 34.3569 31.456C34.931 31.5025 35.7763 31.338 36.3638 31.2069C36.9133 31.0906 37.3862 30.91 37.9185 30.7353C37.1506 30.0509 37.0827 29.8437 36.4507 29.1259L33.8814 26.1972C33.5903 25.8642 33.1368 25.1966 32.7808 25.0292ZM35.5728 12.3681C35.2965 12.3159 34.7458 12.3327 34.4663 12.3622C32.2277 13.0963 32.8498 16.5979 34.3784 17.8261C34.5906 17.6819 34.8048 17.5407 35.02 17.4013C35.7841 16.9069 36.6622 16.2462 36.8491 15.2978C36.972 14.6737 36.9475 13.585 36.5864 13.0351C36.3518 12.6843 35.9858 12.444 35.5728 12.3681Z" fill="#A1A1A1"/>
</g>
<g clip-path="url(#clip1_2834_3287)">
<path d="M81.9395 40.2109C82.947 40.3363 83.4149 40.6163 83.5547 41.668L82.4736 41.6777C82.4109 41.4293 82.3841 41.2875 82.1602 41.1494C81.8665 40.9685 81.3181 40.941 81.1221 41.2764C80.9585 41.5567 81.1114 41.8542 81.3857 41.9893C82.1303 42.3561 83.2631 42.4754 83.5527 43.3945C83.7802 44.194 83.2736 44.8761 82.501 45.0713C81.8426 45.2376 81.1432 45.1979 80.5361 44.877C79.9614 44.5669 79.8432 44.1211 79.7861 43.5166H80.8926C81.2311 45.1308 83.3022 43.9567 82.1777 43.3369C81.1812 42.7877 79.3272 42.6083 80.0605 40.8955C80.1077 40.7877 80.3155 40.6411 80.3672 40.5508C80.7388 40.3298 80.9948 40.2571 81.3008 40.2305C81.484 40.2145 81.6851 40.2161 81.9395 40.2109ZM46.4668 40.2656C47.097 40.2648 48.5218 40.1861 49.0518 40.4209C49.2948 40.4999 49.516 40.634 49.6982 40.8135C50.5125 41.6146 50.4778 43.7332 49.6729 44.5391C48.8992 45.313 47.4965 45.1044 46.4697 45.1094L46.4561 41.9043C46.4534 41.5414 46.4216 40.5503 46.4668 40.2656ZM39.5156 40.2627C39.7032 40.6985 41.0643 44.7522 41.0801 44.9824L41.0977 45.0635C40.9543 45.1601 40.1959 45.1174 39.9961 45.1006C39.9226 45.0944 39.9256 45.0742 39.8877 45.0176C39.8192 44.7028 39.7364 44.4471 39.6377 44.1396L38.2051 44.1465C38.1058 44.4544 38.0161 44.8162 37.9189 45.1025L36.71 45.1113C37.0632 44.1009 37.3921 43.0555 37.7354 42.0391C37.8746 41.6268 38.217 40.6607 38.2891 40.2646L39.5156 40.2627ZM19.7178 40.2686C20.2991 41.8624 20.8003 43.49 21.3398 45.0986C20.9323 45.1168 20.5186 45.108 20.1104 45.1123C20.062 44.79 19.9469 44.4699 19.8525 44.1582L18.3975 44.1592C18.2949 44.4686 18.2221 44.79 18.123 45.1016L16.9355 45.1025C17.2646 44.0197 17.6125 42.942 17.9785 41.8711C18.1495 41.3542 18.3881 40.8012 18.4795 40.2666L19.7178 40.2686ZM42.6748 40.2441C43.0254 40.5114 44.2494 43.0597 44.5049 43.2021C44.6059 42.8331 44.4174 40.4928 44.5693 40.2764L44.666 40.2598C44.9979 40.2694 45.3302 40.2745 45.6621 40.2744C45.6483 41.8845 45.6516 43.4954 45.6719 45.1055L44.5146 45.1123C44.2922 44.7234 44.0724 44.3329 43.8564 43.9404C43.7846 43.8496 43.7407 43.7451 43.6914 43.6406C43.4116 43.2681 42.9965 42.3201 42.7178 42.0312C42.7002 43.0352 42.7218 44.0981 42.7256 45.1064L41.584 45.1094L41.5762 40.2666C41.8654 40.2695 42.4016 40.2861 42.666 40.2383L42.6748 40.2441ZM21.8105 40.2676C22.6887 40.2609 24.0858 40.0965 24.8135 40.6074C25.1008 40.8092 25.3021 41.1111 25.3623 41.459C25.4275 41.8368 25.2944 42.3263 24.9707 42.5566C24.87 42.6283 24.6975 42.6945 24.6279 42.793C24.8153 42.8976 25.0665 43.0161 25.209 43.1758C25.5034 43.5062 25.3704 44.2253 25.4785 44.6475C25.5187 44.8041 25.6111 44.9546 25.6904 45.0947L24.5322 45.1045C24.1773 45.0788 24.4508 43.742 24.0605 43.3574C23.8397 43.14 23.2674 43.215 22.9727 43.2178L22.958 45.1035C22.5792 45.1029 22.2001 45.1045 21.8213 45.1094L21.8105 40.2676ZM56.7393 40.2627L57.1992 40.2744L57.2031 45.1016L56.0586 45.1074C55.9408 44.6435 56.1478 42.4008 55.9941 42.1777C55.6562 43.1273 55.3293 44.1788 54.9775 45.1035L54.2207 45.1084L53.5898 43.2275C53.5006 42.9612 53.3457 42.4574 53.2393 42.2188C53.0791 42.4396 53.278 44.8798 53.1533 45.0967L52.0059 45.1035L52.0088 40.2725L52.4531 40.2637C52.8019 40.2686 53.1512 40.2705 53.5 40.2695C53.7462 40.9821 53.9842 41.6977 54.2158 42.415C54.3265 42.7521 54.5534 43.3937 54.6094 43.7178C54.9509 42.5804 55.3783 41.377 55.6934 40.2715C55.9315 40.27 56.5302 40.2843 56.7393 40.2627ZM64.4326 40.2637C65.619 40.2459 66.8011 40.9543 66.1816 42.2988C66.1839 42.3476 66.1802 42.3836 66.1729 42.4121C66.18 42.3836 66.183 42.3474 66.1807 42.2988C66.0268 42.5005 65.8341 42.6322 65.6328 42.7852C65.9482 42.9602 66.0237 43.015 66.251 43.2793L66.2559 43.2842C66.5559 43.9269 66.1969 44.3522 66.6738 45.0957L65.3906 45.1045C65.3007 44.7306 65.3145 44.3044 65.2705 43.918C65.1809 43.1267 64.5499 43.2081 63.9424 43.2207L63.9375 45.0977L62.8037 45.1074C62.8236 43.4946 62.8277 41.8815 62.8154 40.2686C63.3506 40.2644 63.8989 40.2717 64.4326 40.2637ZM75.1514 40.2715C75.1475 40.5647 75.1417 40.8231 75.165 41.1152C74.4848 41.1175 73.7755 41.1087 73.0977 41.1221L73.0947 42.1562C73.659 42.1547 74.2386 42.1457 74.8018 42.1523L74.7969 43.0283C74.2426 43.0291 73.6504 43.0197 73.0996 43.0352L73.0957 44.2178L75.1445 44.2168L75.1436 45.1074C74.0774 45.1065 72.9815 45.0921 71.918 45.1055C71.9638 44.9485 71.9512 43.898 71.9512 43.6621L71.9453 40.2686L75.1514 40.2715ZM60.6572 40.2666C61.2663 41.8453 61.7484 43.4918 62.2852 45.0977L61.0762 45.1064C61.0005 44.8987 60.9032 44.339 60.792 44.1943C60.7821 44.1817 60.7721 44.1688 60.7607 44.1572L59.3594 44.1611C59.2461 44.4656 59.1673 44.792 59.0693 45.1025L57.8574 45.1016C58.0747 44.6039 58.2143 44.0285 58.3838 43.5107L59.4561 40.2686L60.6572 40.2666ZM67.9336 40.2607C68.145 40.2723 68.3091 40.2745 68.5205 40.2705C68.5201 40.948 68.526 41.6263 68.5371 42.3037C68.8993 41.9039 69.5475 40.7729 69.8262 40.2744C70.1148 40.2735 70.9483 40.2571 71.1904 40.2949C71.1985 40.3823 71.1158 40.4871 71.0664 40.5654C70.6763 41.0992 70.0856 41.8997 69.751 42.4521C69.8708 42.69 70.1656 43.1286 70.3203 43.3721L71.4209 45.0938L69.9229 45.1064C69.7797 44.7953 68.9139 43.0866 68.5908 43.1475C68.4703 43.2797 68.5255 44.8382 68.5264 45.0967L67.3828 45.1025L67.3838 40.2695C67.5599 40.2715 67.7559 40.2641 67.9336 40.2607ZM79.373 40.2705L79.3691 41.1162L78.0908 41.123C78.0801 42.0165 78.0765 42.9102 78.0811 43.8037C78.0814 44.0624 78.0688 44.8595 78.1035 45.0957L76.9199 45.1025L76.9346 41.1162C76.507 41.1154 76.0799 41.1178 75.6523 41.124C75.6982 40.9032 75.6813 40.5049 75.6748 40.2676L79.373 40.2705ZM0.365234 40.2686C1.18817 40.2622 2.24274 40.134 3.02344 40.4346C3.35402 40.5619 3.63854 40.7787 3.78418 41.1094C3.91708 41.4114 3.94294 41.8084 3.82129 42.1182C3.69308 42.4444 3.43183 42.6456 3.11914 42.7812C4.3394 43.2793 3.73638 43.8798 4.03809 44.7363C4.082 44.8608 4.17681 44.9856 4.25098 45.0947C3.82218 45.1044 3.39186 45.0994 2.96289 45.1016C2.87062 44.6757 2.88947 43.672 2.61621 43.4082C2.34375 43.1455 1.86876 43.2089 1.52148 43.2158L1.51562 45.0967L0.361328 45.1006L0.365234 40.2686ZM47.6133 41.1133L47.6055 44.2441C48.0346 44.2478 48.4504 44.2874 48.8057 44.0029C49.1917 43.5567 49.1574 42.8008 49.1172 42.2441C49.0961 41.9517 49.0407 41.5676 48.8086 41.3652C48.4721 41.0722 48.0282 41.1133 47.6133 41.1133ZM38.4297 43.3242C38.7073 43.3306 39.0513 43.3648 39.3105 43.2979L39.3594 43.2334L39.3398 43.1006L39.2578 42.9062C39.2292 42.6824 38.9848 41.9479 38.8945 41.7158L38.4297 43.3242ZM60.0576 41.7842C59.906 42.289 59.7366 42.7963 59.6133 43.3086H60.1426L60.5137 43.3125C60.4378 42.9842 60.2594 42.0173 60.0576 41.7842ZM19.1025 41.7764C18.9712 42.2897 18.815 42.8093 18.6406 43.3096L19.2275 43.3066L19.6035 43.3105C19.5114 43.0346 19.2456 41.9175 19.1025 41.7764ZM1.51367 41.1162L1.5127 42.374C1.82856 42.3743 2.23235 42.4172 2.52148 42.2812C2.6832 42.1286 2.80307 41.937 2.81055 41.707C2.81438 41.5837 2.75789 41.4766 2.6748 41.3887C2.50517 41.2091 2.23006 41.1169 1.98828 41.1113C1.83048 41.1077 1.67148 41.1126 1.51367 41.1162ZM22.9795 41.1152C22.9721 41.5338 22.968 41.9525 22.9678 42.3711C23.3271 42.3745 23.7764 42.4299 24.0811 42.208C24.1976 42.0657 24.2928 41.8409 24.2754 41.6533C24.2635 41.5258 24.1978 41.4242 24.1006 41.3438C23.7811 41.0798 23.3668 41.1086 22.9795 41.1152ZM63.9434 41.1143L63.9375 42.3672C64.2798 42.3726 64.7465 42.4332 65.0312 42.2139C65.1556 42.0958 65.246 41.8703 65.249 41.6992C65.2508 41.5789 65.1976 41.4706 65.1143 41.3867C64.9003 41.1715 64.5832 41.1087 64.292 41.1094C64.176 41.1099 64.0594 41.1115 63.9434 41.1143Z" fill="#A1A1A1"/>
<path d="M55.9939 42.178C56.0165 42.0659 55.9966 42.0614 56.0697 42.0107C56.1179 42.1022 56.1065 44.8888 56.0586 45.108C55.9407 44.6445 56.1478 42.4002 55.9939 42.178Z" fill="#A1A1A1"/>
<path d="M53.1531 45.0959C53.1148 44.9665 53.1256 42.1468 53.1547 42.0371C53.2186 42.079 53.2144 42.1302 53.2397 42.2184C53.0792 42.4384 53.2779 44.8797 53.1531 45.0959Z" fill="#A1A1A1"/>
<path d="M33.8187 40.2686L34.9732 40.2701C34.9439 41.8783 34.9716 43.4903 34.9655 45.0991L33.8199 45.1063L33.8352 43.1321L32.047 43.1348L32.0384 45.0966L30.8958 45.103L30.8977 40.2689L32.0383 40.2694C32.0308 40.9319 32.0395 41.5954 32.0402 42.258L33.8229 42.2573L33.8187 40.2686Z" fill="#A1A1A1"/>
<path d="M58.3144 44.957C58.4124 44.8903 58.6991 44.8984 58.8163 44.9192C58.8975 44.9338 58.9679 44.9414 59.0162 45.01C58.9319 45.0682 58.8787 45.0575 58.7788 45.0596C58.6015 45.063 58.1134 45.122 57.9824 45.0162C58.0437 44.9703 58.216 44.9857 58.3144 44.957Z" fill="#A1A1A1"/>
<path d="M10.3508 40.2368L10.3574 40.2361C10.8946 40.174 11.5432 40.2282 11.9789 40.5765C12.3427 40.8673 12.4285 41.2306 12.4778 41.6686C12.3005 41.6657 11.465 41.7377 11.3782 41.6115C11.2822 41.4719 11.2902 41.2945 11.1493 41.1641C11.0136 41.0383 10.8155 41.0147 10.638 41.0217C10.4524 41.029 10.1943 41.1054 10.0666 41.2479C9.99632 41.3264 9.96377 41.4468 9.97139 41.5513C10.0107 42.093 11.6177 42.412 12.1172 42.843C12.3558 43.0488 12.5254 43.3243 12.5482 43.6437C12.5755 44.0259 12.4901 44.29 12.2447 44.5735C11.877 44.9982 11.4058 45.1316 10.8669 45.1701C10.3269 45.1758 9.73329 45.1006 9.29208 44.7597C8.8787 44.4404 8.77667 44.0059 8.71216 43.5159L9.85068 43.5171C9.87939 43.7374 9.90121 43.909 10.0741 44.0681C10.2698 44.2483 10.5396 44.3385 10.8037 44.3274C10.9734 44.3203 11.1379 44.2569 11.2535 44.1292C11.3401 44.0336 11.4082 43.891 11.4005 43.76C11.3929 43.6289 11.328 43.4957 11.2288 43.4098C10.7386 42.9853 9.7777 42.9157 9.19698 42.4041C8.97821 42.2114 8.83663 41.9668 8.81821 41.6722C8.79765 41.3439 8.91351 40.9729 9.13273 40.726C9.45039 40.3682 9.89524 40.2643 10.3508 40.2368Z" fill="#A1A1A1"/>
<path d="M4.91335 40.2676L8.09091 40.2696L8.08552 41.1139L6.04463 41.1199C6.03655 41.4582 6.0418 41.8183 6.04072 42.1585L7.7471 42.1478L7.7419 43.0266L6.04241 43.0333L6.0431 44.2197L8.0573 44.2171C8.14674 44.3596 8.14987 44.9447 8.03103 45.0868C7.96342 45.0985 7.92073 45.1105 7.85354 45.0934C6.97943 45.14 5.80622 45.1055 4.90845 45.1065L4.91335 40.2676Z" fill="#A1A1A1"/>
<path d="M8.05734 44.2178C8.14678 44.3603 8.14991 44.9453 8.03107 45.0875C7.96346 45.0992 7.92077 45.1112 7.85358 45.0941C7.7388 45.0707 5.083 45.028 5.11156 45.015C5.20111 45.0419 7.68937 44.9169 8.02338 44.9121C8.09356 44.7817 7.9571 44.4251 8.05734 44.2178Z" fill="#A1A1A1"/>
<path d="M13.3228 40.2677C14.3842 40.2628 15.4457 40.2638 16.507 40.2705L16.5028 41.1145L14.4496 41.1207L14.4454 42.1574L16.1594 42.1478L16.1544 43.0266C15.6263 43.0252 15.0157 42.9639 14.4982 43.0483C14.4213 43.1523 14.4449 43.3268 14.4473 43.4518L14.448 44.2191L16.5091 44.2167L16.5093 45.1007C15.4464 45.1238 14.3816 45.1008 13.3184 45.1089L13.3228 40.2677Z" fill="#A1A1A1"/>
<path d="M27.9888 40.2369C28.015 40.2315 28.0405 40.2281 28.0671 40.2268C28.6274 40.2011 29.2234 40.2417 29.6592 40.6415C30.0338 40.9851 30.0939 41.3955 30.1141 41.8749L29.0235 41.8838C28.9947 41.6888 28.9679 41.466 28.8579 41.2986C28.7723 41.1684 28.6441 41.1006 28.4939 41.0705C28.2719 41.026 28.0295 41.0488 27.8378 41.1771C27.6044 41.3333 27.4889 41.5994 27.436 41.8661C27.3324 42.389 27.3215 43.4935 27.6217 43.9391C27.7457 44.1231 27.9135 44.2507 28.1334 44.2919C28.3156 44.326 28.5076 44.313 28.6638 44.2044C28.9304 44.019 28.961 43.7417 29.0143 43.4496L29.0778 43.4254L30.1102 43.4321C30.0914 43.8582 30.045 44.2671 29.752 44.6036C29.4328 44.9703 28.8907 45.133 28.4172 45.1662C27.8822 45.2038 27.3202 45.0694 26.9098 44.7097C26.4419 44.2997 26.3047 43.7087 26.2662 43.1141C26.2176 42.3633 26.2064 41.387 26.735 40.7877C27.0797 40.3969 27.4877 40.2676 27.9888 40.2369Z" fill="#A1A1A1"/>
</g>
<defs>
<clipPath id="clip0_2834_3287">
<rect width="84" height="36.5297" fill="white"/>
</clipPath>
<clipPath id="clip1_2834_3287">
<rect width="84" height="9.81736" fill="white" transform="translate(0 40.1826)"/>
</clipPath>
</defs>
</svg>
