<svg width="737" height="151" viewBox="0 0 737 151" fill="none" xmlns="http://www.w3.org/2000/svg">
<path d="M727.603 51.5657L732.074 51.4431L732.092 52.6766C732.466 81.9203 732.002 111.489 731.991 140.752C731.991 144.092 730.75 146.407 727.124 146.583C722.099 146.828 717.009 146.729 711.951 146.719L684.677 146.692L594.764 146.705C587.929 145.13 589.836 136.906 589.911 131.253C593.203 131.289 596.494 131.201 599.778 130.991C630.499 128.896 650.284 117.474 668.263 92.4234C677.04 80.1888 685.875 64.3755 699.663 57.0215C706.883 53.171 719.369 52.1219 727.603 51.5657Z" fill="black"/>
<path d="M594.588 4.07203C594.89 4.06203 595.192 4.05405 595.498 4.04815C620.229 3.60335 646.363 4.02353 671.188 4.02065L706.063 4.02148C709.779 4.02227 726.92 3.4216 730.305 5.10447C732.963 6.42763 732.175 16.1799 732.078 19.682C706.826 19.6924 687.803 23.715 668.842 41.1412C661.81 47.6133 658.141 51.737 652.59 59.5908C646.388 68.8367 640.568 77.4833 632.848 85.5136C621.758 97.0554 605.56 99.727 589.944 99.4897C589.426 69.6543 590.221 39.506 589.962 9.64655C589.933 6.32063 591.491 4.80024 594.588 4.07203Z" fill="black"/>
<path d="M181.058 32.1584C189.645 32.436 197.429 32.9392 204.567 38.2958C217.095 47.6977 214.78 64.8477 214.758 78.6448L214.748 112.307C214.749 124.593 214.365 132.213 216.058 144.471C208.811 144.521 201.563 144.518 194.316 144.46C193.852 141.624 193.407 138.785 192.981 135.943C187.577 140.257 180.458 144.69 173.67 145.901C157.193 148.839 146.357 142.98 142.967 126.623C139.827 94.2107 165.986 81.5048 191.716 71.5305C191.775 66.4864 192.354 59.3466 189.152 55.0223C185.491 50.0781 176.587 49.835 171.894 53.4357C167.944 56.4665 167.71 62.0351 167.175 66.6439L144.424 66.6011C145.453 51.9882 151.432 39.8971 165.829 34.5139C170.974 32.5904 175.666 32.4301 181.058 32.1584ZM168.436 125.329C177.561 131.645 186.345 124.921 191.723 117.298C191.75 113.387 192.3 90.6148 191.623 88.4112C182.049 93.9882 169.513 100.996 166.194 112.416C164.976 116.608 165.404 121.966 168.436 125.329Z" fill="black"/>
<path d="M506.301 32.4982C515.834 31.5262 527.194 32.3875 535.129 38.3331C547.515 47.6088 545.349 64.7473 545.317 78.6627L545.288 112.238C545.288 124.723 544.853 132.119 546.676 144.49L524.902 144.469C524.435 141.598 523.974 138.827 523.647 135.93C511.819 145.215 494.509 152.217 480.861 141.084C477.818 138.603 476.138 135.2 474.735 131.593C472.088 123.172 473.066 113.214 476.483 105.107C483.829 87.686 505.409 77.9864 522.287 71.5876C522.427 62.876 523.215 51.0534 510.992 51.0556C499.902 51.0578 498.794 57.7183 497.758 66.6215C490.16 66.6636 482.563 66.6553 474.965 66.5971C476.473 47.2364 486.326 34.4008 506.301 32.4982ZM499.258 125.634C508.614 131.329 516.809 125.01 522.284 117.358C522.291 114.425 522.604 89.465 521.967 88.7804L521.611 88.7405C512.233 94.2642 499.776 101.372 496.668 112.699C495.448 117.146 495.984 122.144 499.258 125.634Z" fill="black"/>
<path d="M35.6967 32.1413C55.0742 30.6109 67.2153 43.3905 71.4514 61.2333C65.8541 62.5927 57.8229 63.7431 52.0216 64.7408C51.1194 60.5107 50.5985 58.3995 47.7938 54.9898C42.7555 48.8642 28.9016 49.543 28.7559 59.087C28.5898 69.9633 42.9918 76.5566 50.3032 82.4725C54.2853 85.6942 58.4319 88.9443 62.0093 92.7625C68.5203 99.6484 71.9881 108.862 71.6323 118.329C70.9337 138.352 55.6001 147.268 36.9661 146.585C24.6729 145.606 14.9808 140.795 8.954 129.675C6.30111 124.781 5.68605 121.237 4.54785 115.868C11.1562 114.04 17.9788 112.055 24.6281 110.457C26.1885 119.711 29.903 128.71 40.9982 127.919C46.6775 127.515 50.9219 122.289 49.9071 116.851C47.6017 104.499 31.1766 97.3644 22.5429 89.6235C14.7051 82.5958 7.98444 75.5884 6.86717 64.7538C5.45328 51.0253 13.7559 37.7963 27.0122 33.6409C30.0314 32.6945 32.5823 32.4517 35.6967 32.1413Z" fill="black"/>
<path d="M366.062 32.1449C371.948 31.628 380.11 32.9401 385.157 36.1154C395.412 42.5717 399.135 49.9437 402.031 61.218C395.855 62.5957 388.84 63.6797 382.559 64.7845C381.459 59.1483 379.293 53.6493 373.3 51.6662C362.674 48.1504 354.998 57.6239 361.911 67.0093C366.829 73.6799 375.602 78.2347 382.059 83.3101C385.527 86.0363 388.869 88.9578 391.991 92.0939C398.65 98.6721 402.409 107.631 402.441 116.988C402.373 136.896 388.153 146.636 369.347 146.498C349.847 145.795 338.453 134.888 335.408 115.79C341.99 113.869 348.589 112.006 355.205 110.203C356.407 115.551 357.717 121.111 362.016 124.84C366.48 128.709 374.473 129.153 378.408 124.343C380.005 122.387 380.969 119.182 380.516 116.689C378.203 104.016 362.451 97.5796 353.542 89.6503C345.821 82.8876 338.775 75.6659 337.906 65.0603C337.27 57.3032 338.612 49.137 343.702 43.2462C350.589 35.276 356.173 33.1614 366.062 32.1449Z" fill="black"/>
<path d="M424.071 4.35303L446.853 4.36773C446.996 14.0882 446.881 24.095 446.889 33.8384C451.889 34.0213 457.385 33.9291 462.454 34.0005C462.126 39.0832 462.403 47.7315 462.332 53.1269L446.979 53.1761C446.935 53.9293 446.907 54.6833 446.892 55.4379L446.856 95.3519C446.856 102.536 446.716 109.707 447.022 116.884C447.457 127.21 454.436 125.821 462.378 125.815L462.389 144.259C462.436 144.746 462.227 144.995 461.975 145.407C459.601 146.426 454.205 146.685 451.583 146.696C420.255 146.821 424.017 124.157 424.025 102.361L424.021 53.1654L411.236 53.0679L411.254 33.9707L423.981 33.8788C424.237 24.3578 424.014 13.9941 424.071 4.35303Z" fill="black"/>
<path d="M241.784 4.3479L264.666 4.36606C264.806 14.0998 264.7 24.0915 264.71 33.8461C269.653 33.988 274.866 33.934 279.848 34.0001C279.908 40.3773 279.89 46.7549 279.793 53.1314L264.761 53.1516C264.751 53.5582 264.744 53.9645 264.741 54.3711L264.699 97.5146C264.696 103.982 264.593 110.462 264.789 116.925C265.102 127.261 272.194 125.81 279.841 125.815C279.92 132.011 279.854 138.375 279.857 144.584L279.53 145.382C277.372 146.527 271.66 146.679 269.068 146.694C256.272 146.766 243.759 141.887 242.276 127.633C241.382 119.046 241.732 110.572 241.732 101.893L241.755 53.1695L229.037 53.0761C229.006 46.7071 229.014 40.3381 229.06 33.9695L241.741 33.8832L241.784 4.3479Z" fill="black"/>
<path d="M93.477 4.35994C101.061 4.31824 108.644 4.32169 116.228 4.3703C116.353 14.1107 116.246 24.073 116.246 33.8308C121.231 34.0249 126.787 33.9338 131.843 34.0017C131.874 40.2677 132.015 46.9063 131.742 53.138C126.617 53.093 121.491 53.116 116.366 53.2074C116.349 53.5651 116.339 53.9232 116.334 54.2813L116.295 95.1602C116.292 102.41 116.133 109.659 116.459 116.9C116.922 127.178 123.926 125.826 131.796 125.812C131.998 131.59 131.869 137.947 131.866 143.767C131.862 144.06 131.673 144.891 131.605 145.227C130.399 146.338 122.728 146.675 120.964 146.686C89.6618 146.877 93.427 123.916 93.4295 102.061L93.4349 53.143L80.7248 53.0567L80.7144 33.9785C84.7562 33.8434 89.2999 33.9256 93.3817 33.9075C93.7184 24.6482 93.4353 13.8114 93.477 4.35994Z" fill="black"/>
<path d="M295.148 33.964C302.106 33.7602 311.078 33.8064 318.036 34.0268L317.999 144.487L295.134 144.467L295.148 33.964Z" fill="black"/>
<path d="M295.149 4.09652C302.278 3.88307 310.911 3.95703 318.044 4.13255C318.054 6.92342 318.476 23.7775 317.522 25.0623C310.166 25.0808 302.471 25.2139 295.144 24.9531L295.149 4.09652Z" fill="black"/>
</svg>
