<svg width="100" height="100" viewBox="0 0 100 100" fill="none" xmlns="http://www.w3.org/2000/svg">
<path d="M18.75 4.66675H81.25C91.3114 4.66675 99.5 12.8554 99.5 22.9167V60.4167C99.5 70.4781 91.3114 78.6667 81.25 78.6667H51.583V92.1667H72.917C73.7906 92.1669 74.4998 92.8762 74.5 93.7498C74.5 94.6235 73.7907 95.3336 72.917 95.3337H27.083C26.2093 95.3336 25.5 94.6235 25.5 93.7498C25.5002 92.8762 26.2094 92.1669 27.083 92.1667H48.417V78.6667H18.75C8.68864 78.6667 0.500001 70.4781 0.5 60.4167V22.9167L0.505859 22.446C0.756483 12.6012 8.84601 4.66675 18.75 4.66675ZM18.75 7.83374C10.4322 7.83374 3.66699 14.5989 3.66699 22.9167V60.4167C3.66699 68.7346 10.4322 75.4998 18.75 75.4998H81.25C89.5678 75.4998 96.333 68.7346 96.333 60.4167V22.9167C96.333 14.5989 89.5678 7.83374 81.25 7.83374H18.75ZM37.5 17.1667C51.0114 17.1667 62 28.1554 62 41.6667C62 48.3992 59.2691 54.5067 54.8545 58.9421C54.8439 58.9528 54.8346 58.9635 54.8262 58.9734C54.8102 58.9862 54.7938 59.0024 54.7764 59.0203C50.3409 63.4354 44.237 66.1667 37.5 66.1667C23.9886 66.1667 13 55.1781 13 41.6667C13 28.1554 23.9886 17.1667 37.5 17.1667ZM35.3662 20.5486C24.6179 21.6363 16.167 30.6324 16.167 41.6667C16.167 53.4304 25.7364 62.9998 37.5 62.9998C42.6181 62.9998 47.2528 61.1153 50.9248 58.1121L51.3525 57.7625L50.9619 57.3718L37.5996 44.0085C36.5146 42.9234 35.9171 41.4804 35.917 39.9421V20.4929L35.3662 20.5486ZM72.917 58.8337H85.417C86.2907 58.8339 87 59.543 87 60.4167C87 61.2905 86.2907 61.9996 85.417 61.9998H72.917C72.0431 61.9998 71.333 61.2906 71.333 60.4167C71.333 59.5429 72.0431 58.8337 72.917 58.8337ZM39.2295 20.6921L38.4805 21.4412L39.083 21.5017V39.9421C39.0831 40.6222 39.3621 41.2841 39.834 41.7664L53.2002 55.1326L53.5918 55.5232L53.9414 55.0955C56.9445 51.4235 58.8291 46.7886 58.8291 41.6707C58.829 30.7878 50.6145 21.8943 40.083 20.6033V19.8396L39.2295 20.6921ZM72.917 46.3337H85.417C86.2907 46.3339 87 47.043 87 47.9167C87 48.7905 86.2907 49.4996 85.417 49.4998H72.917C72.0431 49.4998 71.333 48.7906 71.333 47.9167C71.333 47.0429 72.0431 46.3337 72.917 46.3337ZM72.917 33.8337H85.417C86.2907 33.8339 87 34.543 87 35.4167C87 36.2905 86.2907 36.9996 85.417 36.9998H72.917C72.0431 36.9998 71.333 36.2906 71.333 35.4167C71.333 34.5429 72.0431 33.8337 72.917 33.8337ZM72.917 21.3337H85.417C86.2907 21.3339 87 22.043 87 22.9167C87 23.7905 86.2907 24.4996 85.417 24.4998H72.917C72.0431 24.4998 71.333 23.7906 71.333 22.9167C71.333 22.0429 72.0431 21.3337 72.917 21.3337Z" fill="#37B478"/>
<path d="M18.75 4.66675H81.25C91.3114 4.66675 99.5 12.8554 99.5 22.9167V60.4167C99.5 70.4781 91.3114 78.6667 81.25 78.6667H51.583V92.1667H72.917C73.7906 92.1669 74.4998 92.8762 74.5 93.7498C74.5 94.6235 73.7907 95.3336 72.917 95.3337H27.083C26.2093 95.3336 25.5 94.6235 25.5 93.7498C25.5002 92.8762 26.2094 92.1669 27.083 92.1667H48.417V78.6667H18.75C8.68864 78.6667 0.500001 70.4781 0.5 60.4167V22.9167L0.505859 22.446C0.756483 12.6012 8.84601 4.66675 18.75 4.66675ZM18.75 7.83374C10.4322 7.83374 3.66699 14.5989 3.66699 22.9167V60.4167C3.66699 68.7346 10.4322 75.4998 18.75 75.4998H81.25C89.5678 75.4998 96.333 68.7346 96.333 60.4167V22.9167C96.333 14.5989 89.5678 7.83374 81.25 7.83374H18.75ZM37.5 17.1667C51.0114 17.1667 62 28.1554 62 41.6667C62 48.3992 59.2691 54.5067 54.8545 58.9421C54.8439 58.9528 54.8346 58.9635 54.8262 58.9734C54.8102 58.9862 54.7938 59.0024 54.7764 59.0203C50.3409 63.4354 44.237 66.1667 37.5 66.1667C23.9886 66.1667 13 55.1781 13 41.6667C13 28.1554 23.9886 17.1667 37.5 17.1667ZM35.3662 20.5486C24.6179 21.6363 16.167 30.6324 16.167 41.6667C16.167 53.4304 25.7364 62.9998 37.5 62.9998C42.6181 62.9998 47.2528 61.1153 50.9248 58.1121L51.3525 57.7625L50.9619 57.3718L37.5996 44.0085C36.5146 42.9234 35.9171 41.4804 35.917 39.9421V20.4929L35.3662 20.5486ZM72.917 58.8337H85.417C86.2907 58.8339 87 59.543 87 60.4167C87 61.2905 86.2907 61.9996 85.417 61.9998H72.917C72.0431 61.9998 71.333 61.2906 71.333 60.4167C71.333 59.5429 72.0431 58.8337 72.917 58.8337ZM39.2295 20.6921L38.4805 21.4412L39.083 21.5017V39.9421C39.0831 40.6222 39.3621 41.2841 39.834 41.7664L53.2002 55.1326L53.5918 55.5232L53.9414 55.0955C56.9445 51.4235 58.8291 46.7886 58.8291 41.6707C58.829 30.7878 50.6145 21.8943 40.083 20.6033V19.8396L39.2295 20.6921ZM72.917 46.3337H85.417C86.2907 46.3339 87 47.043 87 47.9167C87 48.7905 86.2907 49.4996 85.417 49.4998H72.917C72.0431 49.4998 71.333 48.7906 71.333 47.9167C71.333 47.0429 72.0431 46.3337 72.917 46.3337ZM72.917 33.8337H85.417C86.2907 33.8339 87 34.543 87 35.4167C87 36.2905 86.2907 36.9996 85.417 36.9998H72.917C72.0431 36.9998 71.333 36.2906 71.333 35.4167C71.333 34.5429 72.0431 33.8337 72.917 33.8337ZM72.917 21.3337H85.417C86.2907 21.3339 87 22.043 87 22.9167C87 23.7905 86.2907 24.4996 85.417 24.4998H72.917C72.0431 24.4998 71.333 23.7906 71.333 22.9167C71.333 22.0429 72.0431 21.3337 72.917 21.3337Z" stroke="black"/>
<path d="M18.75 4.66675H81.25C91.3114 4.66675 99.5 12.8554 99.5 22.9167V60.4167C99.5 70.4781 91.3114 78.6667 81.25 78.6667H51.583V92.1667H72.917C73.7906 92.1669 74.4998 92.8762 74.5 93.7498C74.5 94.6235 73.7907 95.3336 72.917 95.3337H27.083C26.2093 95.3336 25.5 94.6235 25.5 93.7498C25.5002 92.8762 26.2094 92.1669 27.083 92.1667H48.417V78.6667H18.75C8.68864 78.6667 0.500001 70.4781 0.5 60.4167V22.9167L0.505859 22.446C0.756483 12.6012 8.84601 4.66675 18.75 4.66675ZM18.75 7.83374C10.4322 7.83374 3.66699 14.5989 3.66699 22.9167V60.4167C3.66699 68.7346 10.4322 75.4998 18.75 75.4998H81.25C89.5678 75.4998 96.333 68.7346 96.333 60.4167V22.9167C96.333 14.5989 89.5678 7.83374 81.25 7.83374H18.75ZM37.5 17.1667C51.0114 17.1667 62 28.1554 62 41.6667C62 48.3992 59.2691 54.5067 54.8545 58.9421C54.8439 58.9528 54.8346 58.9635 54.8262 58.9734C54.8102 58.9862 54.7938 59.0024 54.7764 59.0203C50.3409 63.4354 44.237 66.1667 37.5 66.1667C23.9886 66.1667 13 55.1781 13 41.6667C13 28.1554 23.9886 17.1667 37.5 17.1667ZM35.3662 20.5486C24.6179 21.6363 16.167 30.6324 16.167 41.6667C16.167 53.4304 25.7364 62.9998 37.5 62.9998C42.6181 62.9998 47.2528 61.1153 50.9248 58.1121L51.3525 57.7625L50.9619 57.3718L37.5996 44.0085C36.5146 42.9234 35.9171 41.4804 35.917 39.9421V20.4929L35.3662 20.5486ZM72.917 58.8337H85.417C86.2907 58.8339 87 59.543 87 60.4167C87 61.2905 86.2907 61.9996 85.417 61.9998H72.917C72.0431 61.9998 71.333 61.2906 71.333 60.4167C71.333 59.5429 72.0431 58.8337 72.917 58.8337ZM39.2295 20.6921L38.4805 21.4412L39.083 21.5017V39.9421C39.0831 40.6222 39.3621 41.2841 39.834 41.7664L53.2002 55.1326L53.5918 55.5232L53.9414 55.0955C56.9445 51.4235 58.8291 46.7886 58.8291 41.6707C58.829 30.7878 50.6145 21.8943 40.083 20.6033V19.8396L39.2295 20.6921ZM72.917 46.3337H85.417C86.2907 46.3339 87 47.043 87 47.9167C87 48.7905 86.2907 49.4996 85.417 49.4998H72.917C72.0431 49.4998 71.333 48.7906 71.333 47.9167C71.333 47.0429 72.0431 46.3337 72.917 46.3337ZM72.917 33.8337H85.417C86.2907 33.8339 87 34.543 87 35.4167C87 36.2905 86.2907 36.9996 85.417 36.9998H72.917C72.0431 36.9998 71.333 36.2906 71.333 35.4167C71.333 34.5429 72.0431 33.8337 72.917 33.8337ZM72.917 21.3337H85.417C86.2907 21.3339 87 22.043 87 22.9167C87 23.7905 86.2907 24.4996 85.417 24.4998H72.917C72.0431 24.4998 71.333 23.7906 71.333 22.9167C71.333 22.0429 72.0431 21.3337 72.917 21.3337Z" stroke="black" stroke-opacity="0.2"/>
</svg>
