<svg width="100" height="100" viewBox="0 0 100 100" fill="none" xmlns="http://www.w3.org/2000/svg">
<path d="M95.8334 58.3333C95.8334 39.9542 80.8792 25 62.5001 25H54.1668V18.75C54.1668 13.7208 50.5834 9.5125 45.8334 8.54583V2.08333C45.8334 0.933333 44.9001 0 43.7501 0C42.6001 0 41.6668 0.933333 41.6668 2.08333V8.54583C36.9168 9.5125 33.3334 13.7208 33.3334 18.75V56.25C33.3334 57.4 34.2668 58.3333 35.4167 58.3333H52.0834C53.2334 58.3333 54.1668 57.4 54.1668 56.25V29.1667H62.5001C78.5793 29.1667 91.6668 42.25 91.6668 58.3333C91.6668 74.4167 78.5793 87.5 62.5001 87.5H45.8334V75H68.7501C69.9001 75 70.8334 74.0667 70.8334 72.9167C70.8334 71.7667 69.9001 70.8333 68.7501 70.8333H18.7501C17.6001 70.8333 16.6667 71.7667 16.6667 72.9167C16.6667 74.0667 17.6001 75 18.7501 75H41.6668V87.5H6.25008C5.10008 87.5 4.16675 88.4333 4.16675 89.5833C4.16675 90.7333 5.10008 91.6667 6.25008 91.6667H16.6667V97.9167C16.6667 99.0667 17.6001 100 18.7501 100C19.9001 100 20.8334 99.0667 20.8334 97.9167V91.6667H62.5001C63.9126 91.6667 65.3001 91.55 66.6668 91.3792V97.9167C66.6668 99.0667 67.6001 100 68.7501 100C69.9001 100 70.8334 99.0667 70.8334 97.9167V90.5708C85.1876 86.8542 95.8334 73.8333 95.8334 58.3333ZM50.0001 54.1667H37.5001V18.75C37.5001 15.3042 40.3042 12.5 43.7501 12.5C47.1959 12.5 50.0001 15.3042 50.0001 18.75V54.1667Z" fill="#37B478"/>
</svg>
