<svg width="100" height="100" viewBox="0 0 100 100" fill="none" xmlns="http://www.w3.org/2000/svg">
<path d="M74.9458 9.50005C66.9792 2.39589 56.2917 -0.979114 45.5708 0.258386C28.9292 2.16672 15.1833 15.5667 12.8792 32.1167C11.125 44.6751 15.7042 57.1584 25.125 65.5042C30.7417 70.4292 33.6667 77.8584 33.3333 85.4126C33.3333 93.4542 39.875 99.9959 47.9167 99.9959H52.0833C60.125 99.9959 66.6667 93.4542 66.6667 85.4126C66.3375 77.7917 69.3667 70.5376 75.4917 64.8959C83.1208 57.8376 87.5 47.8501 87.5 37.4959C87.5 26.8167 82.925 16.6167 74.9458 9.50005ZM62.5 85.4167C62.5 91.1584 57.8292 95.8334 52.0833 95.8334H47.9167C42.1708 95.8334 37.5 91.1584 37.5 85.4167C37.5417 83.3417 37.4292 81.1876 37.0667 79.1667H62.9542C62.575 81.1959 62.4583 83.3417 62.5 85.4167ZM72.6625 61.8417C68.55 65.6417 65.6 70.1459 63.9708 75.0001H36.0917C34.5333 70.1626 31.7292 65.7917 27.8875 62.3876C19.5125 54.9709 15.4458 43.8709 17.0042 32.6959C19.05 17.9959 31.2625 6.09589 46.0417 4.39589C47.3875 4.24172 48.725 4.16672 50.05 4.16672C58.25 4.16672 65.9875 7.09589 72.1792 12.6126C79.2667 18.9376 83.3375 28.0084 83.3375 37.5001C83.3375 46.8334 79.55 55.4792 72.6667 61.8417H72.6625ZM65.5333 22.8792L55.1 16.9876C51.9417 15.1959 48.0083 15.2001 44.8417 16.9876L34.4417 22.8792C31.1833 24.7251 29.1542 28.1959 29.1542 31.9417V44.9792C29.1542 48.7042 31.1625 52.1709 34.4042 54.0209L44.8833 60.0084C48.0292 61.8042 51.9417 61.8292 55.1125 60.0751L65.4583 54.3292C68.7667 52.4959 70.8208 49.0042 70.8208 45.2209V31.9459C70.8083 28.2042 68.7458 24.7459 65.5292 22.8751L65.5333 22.8792ZM47.9083 56.7876C47.5833 56.6709 36.475 50.4084 36.475 50.4084C34.5333 49.2959 33.325 47.2167 33.325 44.9834V31.9459C33.325 31.4459 33.4083 30.9584 33.5208 30.4834L47.9083 38.7042V56.7876ZM35.8333 27.0084C36.0542 26.8417 46.8917 20.6167 46.8917 20.6167C48.7958 19.5417 51.15 19.5417 53.05 20.6167C53.05 20.6167 63.9292 26.8459 64.15 27.0167L50 35.1042L35.8333 27.0084ZM66.6583 45.2251C66.6583 47.4959 65.425 49.5876 63.4417 50.6917C63.4417 50.6917 52.4208 56.7251 52.075 56.8417V38.7167L66.4625 30.4959C66.575 30.9709 66.6583 31.4542 66.6583 31.9542V45.2251Z" fill="#37B478"/>
</svg>
