<svg width="100" height="100" viewBox="0 0 100 100" fill="none" xmlns="http://www.w3.org/2000/svg">
<g clip-path="url(#clip0_56_478)">
<path d="M4.16672 60.5625L8.33338 56.3958V100H4.16672V60.5625ZM20.8334 100H25V39.7292L20.8334 43.8958V100ZM37.5 27.2292V72.8667C38.5667 71.2333 39.9417 69.3583 41.6667 67.425V27.2292L39.5834 25.1458L37.5 27.2292ZM37.5 100H41.6667V94.3792C39.8917 92.4667 38.5042 90.6917 37.5 89.3V100ZM98.8709 80.2917L99.3667 81.25C96.6084 86.4208 89.1167 99.6583 70.8292 100C52.6126 99.575 43.4042 83.0375 42.2542 81.325C45.0292 76.0792 52.4334 62.8667 70.8292 62.5C88.2876 62.5 96.7084 76.1208 98.8709 80.2917ZM94.6459 81.25C92.125 76.8292 84.8 66.6667 70.8292 66.6667C56.9334 66.6667 49.625 76.6833 47.0584 81.1542C49.4167 84.5667 58.1584 95.8333 70.8292 95.8333C84.7792 95.8333 92.1167 85.6667 94.6459 81.25ZM93.7459 0H70.8292V4.16667H92.8834L64.5792 32.4708L39.5834 7.47083L0.237549 46.8167L3.18338 49.7625L39.5834 13.3625L64.5834 38.3625L95.8334 7.1125V29.1667H100V6.25C100 2.80417 97.1917 0 93.7459 0ZM87.4959 37.5V57.9083C88.9751 58.625 90.3667 59.4083 91.6626 60.25V37.5H87.4959ZM70.8292 43.8958V54.1667C72.2667 54.1667 73.6542 54.2458 74.9959 54.3833V39.7333L70.8292 43.9V43.8958ZM54.1625 39.7292V57.8958C55.475 57.2625 56.8667 56.7 58.3292 56.2042V43.8958L54.1625 39.7292ZM79.1584 81.25C79.1584 85.8458 75.4209 89.5833 70.825 89.5833C66.2292 89.5833 62.4917 85.8458 62.4917 81.25C62.4917 76.6542 66.2292 72.9167 70.825 72.9167C75.4209 72.9167 79.1584 76.6542 79.1584 81.25ZM74.9917 81.25C74.9917 78.95 73.125 77.0833 70.825 77.0833C68.525 77.0833 66.6584 78.95 66.6584 81.25C66.6584 83.55 68.525 85.4167 70.825 85.4167C73.125 85.4167 74.9917 83.55 74.9917 81.25Z" fill="#37B478"/>
</g>
<defs>
<clipPath id="clip0_56_478">
<rect width="100" height="100" fill="white"/>
</clipPath>
</defs>
</svg>
