<svg width="100" height="100" viewBox="0 0 100 100" fill="none" xmlns="http://www.w3.org/2000/svg">
<g clip-path="url(#clip0_54_476)">
<path d="M89.5833 79.1667C86.8833 79.1667 84.4375 80.225 82.5875 81.9208L70.5625 73.175L71.275 72.7667C76.1292 69.9917 79.1417 64.8 79.1417 59.2167L79.1917 40.7875C79.1917 35.2 76.175 30.0083 71.325 27.2333L70.5833 26.8083L82.5875 18.0792C84.4417 19.7708 86.8833 20.8333 89.5833 20.8333C95.325 20.8333 100 16.1625 100 10.4167C100 4.67083 95.325 0 89.5833 0C83.8417 0 79.1667 4.67083 79.1667 10.4167C79.1667 11.9542 79.5208 13.4042 80.125 14.7208L66.6208 24.5458L57.7958 19.5042C53.0208 16.7792 47.0833 16.7792 42.3042 19.5042L33.425 24.575L19.875 14.7208C20.475 13.4042 20.8333 11.9542 20.8333 10.4167C20.8333 4.67083 16.1583 0 10.4167 0C4.675 0 0 4.67083 0 10.4167C0 16.1625 4.675 20.8333 10.4167 20.8333C13.1167 20.8333 15.5625 19.775 17.4167 18.0792L29.4625 26.8417L28.775 27.2333C23.9208 30.0083 20.9083 35.2 20.9083 40.7833L20.8583 59.2125C20.8583 64.8 23.8708 69.9917 28.725 72.7667L29.4375 73.175L17.4125 81.9208C15.5583 80.2292 13.1167 79.1708 10.4167 79.1708C4.675 79.1708 0 83.8417 0 89.5875C0 95.3333 4.675 100.004 10.4167 100.004C16.1583 100.004 20.8333 95.3333 20.8333 89.5875C20.8333 88.05 20.4792 86.6 19.875 85.2833L33.4042 75.4458L42.2542 80.5042C44.6417 81.8667 47.3208 82.55 50 82.55C52.6792 82.55 55.3583 81.8667 57.7458 80.5042L66.5958 75.4458L80.125 85.2833C79.525 86.6 79.1667 88.05 79.1667 89.5875C79.1667 95.3333 83.8417 100.004 89.5833 100.004C95.325 100.004 100 95.3333 100 89.5875C100 83.8417 95.325 79.1667 89.5833 79.1667ZM89.5833 4.16667C93.0292 4.16667 95.8333 6.97083 95.8333 10.4167C95.8333 13.8625 93.0292 16.6667 89.5833 16.6667C86.1375 16.6667 83.3333 13.8625 83.3333 10.4167C83.3333 6.97083 86.1375 4.16667 89.5833 4.16667ZM10.4167 16.6667C6.97083 16.6667 4.16667 13.8625 4.16667 10.4167C4.16667 6.97083 6.97083 4.16667 10.4167 4.16667C13.8625 4.16667 16.6667 6.97083 16.6667 10.4167C16.6667 13.8625 13.8625 16.6667 10.4167 16.6667ZM10.4167 95.8333C6.97083 95.8333 4.16667 93.0292 4.16667 89.5833C4.16667 86.1375 6.97083 83.3333 10.4167 83.3333C13.8625 83.3333 16.6667 86.1375 16.6667 89.5833C16.6667 93.0292 13.8625 95.8333 10.4167 95.8333ZM30.8417 30.8542L44.3708 23.125C46.1208 22.125 48.0875 21.625 50.05 21.625C52.0125 21.625 53.975 22.125 55.7292 23.125L69.2583 30.8542C70.3333 31.4667 71.2333 32.2833 72.0417 33.1792L50 45.775L28.0292 33.2208C28.8417 32.3083 29.75 31.475 30.8417 30.8542ZM30.7917 69.1417C27.2333 67.1125 25.025 63.3042 25.025 59.2125L25.075 40.7833C25.075 39.3917 25.4125 38.0667 25.8917 36.8L47.9167 49.3833V78.1042C46.6708 77.875 45.45 77.5125 44.3208 76.8708L30.7917 69.1417ZM55.6792 76.8708C54.5542 77.5125 53.3292 77.875 52.0833 78.1042V49.3833L74.1917 36.75C74.6792 38.0292 75.025 39.3708 75.025 40.7792L74.975 59.2083C74.975 63.3 72.7667 67.1083 69.2083 69.1417L55.6792 76.8708ZM89.5875 95.8292C86.1417 95.8292 83.3375 93.025 83.3375 89.5792C83.3375 86.1333 86.1417 83.3292 89.5875 83.3292C93.0333 83.3292 95.8375 86.1333 95.8375 89.5792C95.8375 93.025 93.0333 95.8292 89.5875 95.8292Z" fill="#37B478"/>
</g>
<defs>
<clipPath id="clip0_54_476">
<rect width="100" height="100" fill="white"/>
</clipPath>
</defs>
</svg>
