<svg width="100" height="100" viewBox="0 0 100 100" fill="none" xmlns="http://www.w3.org/2000/svg">
<g clip-path="url(#clip0_54_474)">
<path d="M83.2792 62.8875V38.2667C85.2917 37.7958 87.2084 36.8125 88.775 35.2458L96.6417 27.3792C101.121 22.9 101.121 15.6083 96.6417 11.125L88.775 3.25833C84.4334 -1.08333 76.8625 -1.08333 72.5209 3.25833L64.65 11.125C63.0709 12.7042 62.0834 14.6375 61.6167 16.6667H37.2375C36.1834 7.31667 28.325 0 18.6959 0C8.35836 0 -0.0541382 8.4125 -0.0541382 18.75C-0.0541382 28.375 7.26253 36.2375 16.6125 37.2875V66.6667H12.4459C6.70003 66.6667 2.0292 71.3375 2.0292 77.0833V89.5833C2.0292 95.3292 6.70003 100 12.4459 100H24.9459C30.6917 100 35.3625 95.3292 35.3625 89.5833V77.0833C35.3625 71.3375 30.6917 66.6667 24.9459 66.6667H20.7792V37.2875C29.4375 36.3125 36.2625 29.4875 37.2334 20.8333H61.4375C61.7667 23.2292 62.8084 25.5417 64.6459 27.3792L72.5167 35.2458C74.3625 37.0958 76.7 38.1375 79.1125 38.4583V62.5375C68.95 62.7417 60.7375 71.0375 60.7375 81.25C60.7375 91.5875 69.15 100 79.4875 100C89.825 100 98.2375 91.5875 98.2375 81.25C98.2375 72.2083 91.8084 64.6458 83.2792 62.8875ZM31.1959 77.0833V89.5833C31.1959 93.0292 28.3917 95.8333 24.9459 95.8333H12.4459C9.00003 95.8333 6.19586 93.0292 6.19586 89.5833V77.0833C6.19586 73.6375 9.00003 70.8333 12.4459 70.8333H24.9459C28.3917 70.8333 31.1959 73.6375 31.1959 77.0833ZM18.6959 33.3333C10.6542 33.3333 4.11253 26.7917 4.11253 18.75C4.11253 10.7083 10.6542 4.16667 18.6959 4.16667C26.7375 4.16667 33.2792 10.7083 33.2792 18.75C33.2792 26.7917 26.7375 33.3333 18.6959 33.3333ZM67.5959 24.4333C64.7375 21.575 64.7375 16.9292 67.5959 14.0708L75.4667 6.20417C76.85 4.81667 78.6875 4.05833 80.6459 4.05833C82.6042 4.05833 84.4459 4.82083 85.8292 6.20417L93.6959 14.0708C96.5542 16.9292 96.5542 21.5792 93.6959 24.4333L85.8292 32.3C82.975 35.1583 78.325 35.1583 75.4667 32.3L67.5959 24.4333ZM79.4875 95.8333C71.4459 95.8333 64.9042 89.2917 64.9042 81.25C64.9042 73.2083 71.4459 66.6667 79.4875 66.6667C87.5292 66.6667 94.0709 73.2083 94.0709 81.25C94.0709 89.2917 87.5292 95.8333 79.4875 95.8333Z" fill="#37B478"/>
</g>
<defs>
<clipPath id="clip0_54_474">
<rect width="100" height="100" fill="white"/>
</clipPath>
</defs>
</svg>
