<svg width="100" height="100" viewBox="0 0 100 100" fill="none" xmlns="http://www.w3.org/2000/svg">
<path d="M30.5792 61.2458C29.6833 62.1458 29.1625 63.4125 29.1667 64.7541C29.1667 66.0916 29.7 67.3541 30.6542 68.3L40.9792 77.6208C41.8333 78.3958 41.9 79.7083 41.1292 80.5625C40.3583 81.4208 39.0375 81.4791 38.1875 80.7125L27.7958 71.325C25.975 69.5291 25.0083 67.225 25 64.7666C24.9917 62.3083 25.9458 59.9916 27.6875 58.2541L38.1667 48.4791C39.0042 47.6958 40.3292 47.7416 41.1083 48.5791C41.8917 49.4208 41.85 50.7416 41.0083 51.5208L30.5792 61.2458ZM100 22.9166V77.0833C100 87.4208 91.5875 95.8333 81.25 95.8333H18.75C8.4125 95.8333 0 87.4208 0 77.0833V22.9166C0 12.5791 8.4125 4.16663 18.75 4.16663H81.25C91.5875 4.16663 100 12.5791 100 22.9166ZM4.16667 22.9166V33.3333H95.8333V22.9166C95.8333 14.875 89.2917 8.33329 81.25 8.33329H18.75C10.7083 8.33329 4.16667 14.875 4.16667 22.9166ZM95.8333 77.0833V37.5H4.16667V77.0833C4.16667 85.125 10.7083 91.6666 18.75 91.6666H81.25C89.2917 91.6666 95.8333 85.125 95.8333 77.0833ZM16.6667 25C18.9667 25 20.8333 23.1333 20.8333 20.8333C20.8333 18.5333 18.9667 16.6666 16.6667 16.6666C14.3667 16.6666 12.5 18.5333 12.5 20.8333C12.5 23.1333 14.3667 25 16.6667 25ZM29.1667 25C31.4667 25 33.3333 23.1333 33.3333 20.8333C33.3333 18.5333 31.4667 16.6666 29.1667 16.6666C26.8667 16.6666 25 18.5333 25 20.8333C25 23.1333 26.8667 25 29.1667 25ZM41.6667 25C43.9667 25 45.8333 23.1333 45.8333 20.8333C45.8333 18.5333 43.9667 16.6666 41.6667 16.6666C39.3667 16.6666 37.5 18.5333 37.5 20.8333C37.5 23.1333 39.3667 25 41.6667 25ZM61.8375 48.4791C61.0042 47.6958 59.675 47.7416 58.8958 48.5791C58.1125 49.4208 58.1542 50.7416 58.9958 51.5208L69.3667 61.1958C70.3167 62.1458 70.8375 63.4083 70.8333 64.7541C70.8333 66.0916 70.3 67.3541 69.4125 68.2333L59.0208 77.6208C58.1667 78.3958 58.1 79.7083 58.8708 80.5625C59.6417 81.4208 60.9583 81.4791 61.8125 80.7125L72.275 71.2583C74.025 69.5291 74.9917 67.2208 75 64.7625C75.0083 62.3041 74.0542 59.9875 72.2625 58.2L61.8375 48.475V48.4791Z" fill="#37B478"/>
</svg>
