<svg width="100" height="100" viewBox="0 0 100 100" fill="none" xmlns="http://www.w3.org/2000/svg">
<g clip-path="url(#clip0_58_492)">
<path d="M64.5833 25C58.8417 25 54.1667 29.675 54.1667 35.4167C54.1667 41.1583 58.8417 45.8333 64.5833 45.8333C70.325 45.8333 75 41.1583 75 35.4167C75 29.675 70.325 25 64.5833 25ZM64.5833 41.6667C61.1375 41.6667 58.3333 38.8625 58.3333 35.4167C58.3333 31.9708 61.1375 29.1667 64.5833 29.1667C68.0292 29.1667 70.8333 31.9708 70.8333 35.4167C70.8333 38.8625 68.0292 41.6667 64.5833 41.6667ZM100 10.4167C100 4.675 95.325 0 89.525 0C68.9333 0.5875 50.175 10.6333 34.8958 29.1708C28.2875 29.25 21.6958 30.8542 15.7917 33.8167C6.2 38.6292 0 49.0708 0 60.4167V62.5H20.8333C25.2833 62.5 29.4708 64.2333 32.6208 67.3792C35.7667 70.5292 37.5 74.7125 37.5 79.1667V100H39.5833C50.9292 100 61.3708 93.8042 66.1833 84.2125C69.15 78.3083 70.75 71.7125 70.8292 65.1042C89.3625 49.825 99.4125 31.0625 100 10.4167ZM17.6583 37.5417C21.9667 35.3792 26.6792 34.0208 31.4792 33.5375C31.0708 34.0875 30.6625 34.6417 30.2583 35.2042C23.7875 44.2333 18.9583 54.7208 17.375 58.3333H4.24583C4.9375 49.375 10.05 41.3583 17.6583 37.5417ZM62.4583 82.3417C58.6375 89.95 50.625 95.0625 41.6667 95.7542V82.625C45.2833 81.0417 55.7667 76.2125 64.8 69.7417C65.3625 69.3375 65.9167 68.9333 66.4667 68.525C65.9833 73.325 64.625 78.0375 62.4625 82.3458L62.4583 82.3417ZM62.3708 66.3542C54.8583 71.7375 46.0625 76.0417 41.6375 78.0667C41.3708 72.9167 39.2375 68.1125 35.5667 64.4375C31.8917 60.7625 27.0875 58.6333 21.9375 58.3667C23.9625 53.9417 28.2667 45.1458 33.65 37.6333C44.2875 22.7875 62.6375 4.93333 89.5833 4.16667C93.0292 4.16667 95.8333 6.97083 95.8333 10.3583C95.0667 37.3625 77.2125 55.7125 62.3708 66.3542ZM7.21667 78.05C3.675 81.5875 1.30417 94.2208 0.866667 96.7167L0.35 99.6458L3.27917 99.1292C5.775 98.6917 18.4083 96.3208 21.9458 92.7792C23.9125 90.8125 24.9958 88.1958 24.9958 85.4125C24.9958 82.6292 23.9125 80.0125 21.9458 78.0458C18.0167 74.1125 11.1458 74.1167 7.21667 78.05ZM19 89.8333C17.3917 91.4417 10.9417 93.2958 5.55417 94.4417C6.7 89.0542 8.55417 82.6042 10.1625 80.9958C11.3417 79.8167 12.9125 79.1667 14.5833 79.1667C16.2542 79.1667 17.8208 79.8167 19.0042 80.9958C20.1875 82.175 20.8333 83.7458 20.8333 85.4167C20.8333 87.0875 20.1833 88.6542 19.0042 89.8375L19 89.8333Z" fill="#37B478"/>
</g>
<defs>
<clipPath id="clip0_58_492">
<rect width="100" height="100" fill="white"/>
</clipPath>
</defs>
</svg>
