<svg width="100" height="100" viewBox="0 0 100 100" fill="none" xmlns="http://www.w3.org/2000/svg">
<g clip-path="url(#clip0_57_480)">
<path d="M81.25 0H18.75C8.4125 0 0 8.4125 0 18.75V52.0833C0 53.2333 0.933333 54.1667 2.08333 54.1667C3.23333 54.1667 4.16667 53.2333 4.16667 52.0833V33.3333H95.8333V47.9167C95.8333 49.0667 96.7667 50 97.9167 50C99.0667 50 100 49.0667 100 47.9167V18.75C100 8.4125 91.5875 0 81.25 0ZM4.16667 29.1667V18.75C4.16667 10.7083 10.7083 4.16667 18.75 4.16667H81.25C89.2917 4.16667 95.8333 10.7083 95.8333 18.75V29.1667H4.16667ZM20.8333 16.6667C20.8333 18.9667 18.9667 20.8333 16.6667 20.8333C14.3667 20.8333 12.5 18.9667 12.5 16.6667C12.5 14.3667 14.3667 12.5 16.6667 12.5C18.9667 12.5 20.8333 14.3667 20.8333 16.6667ZM33.3333 16.6667C33.3333 18.9667 31.4667 20.8333 29.1667 20.8333C26.8667 20.8333 25 18.9667 25 16.6667C25 14.3667 26.8667 12.5 29.1667 12.5C31.4667 12.5 33.3333 14.3667 33.3333 16.6667ZM45.8333 16.6667C45.8333 18.9667 43.9667 20.8333 41.6667 20.8333C39.3667 20.8333 37.5 18.9667 37.5 16.6667C37.5 14.3667 39.3667 12.5 41.6667 12.5C43.9667 12.5 45.8333 14.3667 45.8333 16.6667ZM25 66.6667C20.4042 66.6667 16.6667 70.4042 16.6667 75C16.6667 79.5958 20.4042 83.3333 25 83.3333C29.5958 83.3333 33.3333 79.5958 33.3333 75C33.3333 70.4042 29.5958 66.6667 25 66.6667ZM25 79.1667C22.7 79.1667 20.8333 77.3 20.8333 75C20.8333 72.7 22.7 70.8333 25 70.8333C27.3 70.8333 29.1667 72.7 29.1667 75C29.1667 77.3 27.3 79.1667 25 79.1667ZM47.2333 67.1208C47.6583 65.5042 47.425 63.8208 46.5833 62.3833C45.7417 60.9417 44.3917 59.9125 42.775 59.4917C41.15 59.0667 39.4708 59.3 38.0333 60.1417L37.0958 60.6875C35.3875 59.2542 33.4042 58.1375 31.25 57.3792V56.25C31.25 52.8042 28.4458 50 25 50C21.5542 50 18.75 52.8042 18.75 56.25V57.3792C16.5917 58.1375 14.6125 59.2542 12.9042 60.6875L11.9667 60.1417C10.5292 59.3 8.85 59.0667 7.225 59.4917C5.60833 59.9167 4.25833 60.9458 3.41667 62.3792C2.575 63.8208 2.34167 65.5042 2.76667 67.1208C3.19167 68.7375 4.21667 70.0875 5.65833 70.9333L6.62917 71.5042C6.37083 72.7375 6.24583 73.8708 6.24583 75C6.24583 76.1292 6.36667 77.2625 6.62917 78.4958L5.65417 79.0667C4.2125 79.9125 3.1875 81.2625 2.76667 82.8792C2.34167 84.4958 2.575 86.1792 3.41667 87.6167C4.25833 89.0583 5.60833 90.0875 7.225 90.5083C8.85 90.9375 10.5292 90.7042 11.9667 89.8583L12.9042 89.3125C14.6125 90.7458 16.5958 91.8625 18.75 92.6208V93.75C18.75 97.1958 21.5542 100 25 100C28.4458 100 31.25 97.1958 31.25 93.75V92.6208C33.4083 91.8625 35.3875 90.7458 37.0958 89.3125L38.0333 89.8583C39.4708 90.7042 41.15 90.9375 42.775 90.5083C44.3917 90.0833 45.7417 89.0542 46.5833 87.6208C47.425 86.1792 47.6583 84.4958 47.2333 82.8792C46.8083 81.2625 45.7833 79.9125 44.3417 79.0667L43.3708 78.4958C43.6292 77.2625 43.7542 76.1292 43.7542 75C43.7542 73.8708 43.6333 72.7375 43.3708 71.5042L44.3458 70.9333C45.7875 70.0875 46.8125 68.7375 47.2333 67.1208ZM38.9667 71.0542C39.3917 72.5458 39.5833 73.7958 39.5833 74.9958C39.5833 76.1958 39.3875 77.4458 38.9667 78.9375C38.7083 79.85 39.1 80.8208 39.9208 81.3L42.2375 82.6542C43.2292 83.2375 43.5667 84.5125 42.9875 85.5083C42.4417 86.4875 41.0917 86.8458 40.1333 86.2542L37.875 84.9375C37.0667 84.4625 36.0208 84.5958 35.35 85.2667C33.55 87.0792 31.2333 88.3875 28.65 89.0542C27.7292 89.2958 27.0875 90.125 27.0875 91.0708V93.7458C27.0875 94.8917 26.15 95.8292 25.0042 95.8292C23.8583 95.8292 22.9208 94.8917 22.9208 93.7458V91.0708C22.9208 90.1208 22.2792 89.2917 21.3583 89.0542C18.775 88.3875 16.4542 87.075 14.6583 85.2667C14.2542 84.8625 13.7208 84.6542 13.1833 84.6542C12.8208 84.6542 12.4583 84.7458 12.1333 84.9375L9.875 86.2542C8.9 86.8375 7.575 86.4917 7.02083 85.5042C6.4375 84.5167 6.775 83.2375 7.76667 82.6542L10.0875 81.3C10.9083 80.8208 11.3 79.8458 11.0417 78.9375C10.6167 77.4458 10.425 76.1958 10.425 74.9958C10.425 73.7958 10.6208 72.5458 11.0417 71.0542C11.3 70.1417 10.9083 69.1708 10.0875 68.6917L7.77083 67.3375C6.77917 66.7542 6.44167 65.4792 7.02083 64.4833C7.56667 63.5 8.92083 63.1583 9.875 63.7375L12.1333 65.0542C12.9458 65.5292 13.9875 65.4 14.6583 64.725C16.4583 62.9125 18.775 61.6042 21.3583 60.9375C22.2792 60.6958 22.9208 59.8667 22.9208 58.9208V56.2458C22.9208 55.1 23.8583 54.1625 25.0042 54.1625C26.15 54.1625 27.0875 55.1 27.0875 56.2458V58.9208C27.0875 59.8708 27.7292 60.7 28.65 60.9375C31.2333 61.6042 33.5542 62.9167 35.35 64.725C36.0208 65.4 37.0667 65.5292 37.875 65.0542L40.1333 63.7375C41.1042 63.15 42.4375 63.5 42.9875 64.4875C43.5708 65.475 43.2333 66.7542 42.2417 67.3375L39.9208 68.6917C39.1 69.1708 38.7083 70.1458 38.9667 71.0542ZM88.3333 74.1958L96.4083 70.1583C98.5542 69.0833 99.9083 66.8458 99.8583 64.4667C99.8208 62.0667 98.3833 59.8708 96.0125 58.8125L59.4125 46.2167C56.7708 45.3292 53.9208 45.9958 51.9875 47.9458C49.9917 49.9417 49.3667 52.7667 50.3125 55.5083C50.3125 55.5083 62.9 92.0833 62.9208 92.1458C63.9125 94.3375 66.1333 95.7792 68.6125 95.8167C70.9917 95.8167 73.1333 94.4958 74.2042 92.3625L78.3 84.1625L87.9292 93.7542C90.5583 96.4875 95.3208 96.4833 97.9333 93.7542C100.675 91.125 100.671 86.3667 97.925 83.75L88.3292 74.2042L88.3333 74.1958ZM94.9875 90.8042C93.9042 91.8833 91.9667 91.9 90.8708 90.7958L79.2 79.1708C78.7333 78.7 78.0708 78.4667 77.3917 78.5917C76.7333 78.6958 76.1667 79.1167 75.8667 79.7167L70.4792 90.4917C70.125 91.2042 69.4083 91.6458 68.65 91.6458C67.8375 91.6333 67.1042 91.1875 66.7583 90.5L54.2542 54.1458C53.8333 52.9292 54.0833 51.7417 54.9458 50.8833C55.7583 50.0583 56.9708 49.7792 58.075 50.1583L94.4792 62.675C95.2083 63.0042 95.6833 63.7333 95.6958 64.5375C95.7125 65.3292 95.2625 66.0708 94.55 66.4292L83.8792 71.7583C83.2792 72.0583 82.8625 72.6292 82.7542 73.2917C82.6458 73.95 82.8625 74.625 83.3417 75.1L94.9917 86.6917C95.5375 87.2375 95.8375 87.9667 95.8375 88.7417C95.8375 89.5167 95.5375 90.2542 94.9875 90.8042Z" fill="#37B478"/>
</g>
<defs>
<clipPath id="clip0_57_480">
<rect width="100" height="100" fill="white"/>
</clipPath>
</defs>
</svg>
