<svg width="495" height="258" viewBox="0 0 495 258" fill="none" xmlns="http://www.w3.org/2000/svg">
<g clip-path="url(#clip0_2827_1234)">
<path d="M483.515 220.954L443.368 220.977C436.76 220.98 429.52 221.272 422.975 220.663C417.7 220.06 413.448 214.605 413.65 209.368C413.963 201.342 413.065 192.262 413.99 184.366C414.563 179.483 420.033 175.7 424.828 175.635C430.148 175.563 435.798 175.589 441.295 175.594L474.333 175.568C479.948 175.575 486.848 175.829 492.293 175.573C492.31 179.376 492.303 183.179 492.27 186.981C469.948 187.313 447.31 186.684 425.005 187.1L425.02 209.487L459.153 209.451C464.783 209.449 483.51 208.695 487.953 210.378C493.03 212.3 493.06 215.557 494.93 219.673C494.953 219.723 494.978 219.773 495 219.822V246.723C494.655 247.257 494.515 248.214 494.318 248.856C491.513 257.955 483.798 257.01 476.088 257.012L462.723 257.015L416.223 256.947L416.238 245.535L461.615 245.565C467.213 245.565 478.283 245.243 483.508 245.685L483.515 220.954Z" fill="white"/>
<path d="M0 175.546C2.66858 175.565 9.11565 175.792 11.4848 175.572L11.4824 256.857C7.65592 256.97 3.82812 257.032 0 257.042V175.546Z" fill="white"/>
<path d="M123.957 175.601C136.864 175.272 151.095 175.596 164.102 175.582L178.251 175.567C183.037 175.565 188.094 174.939 192.127 177.967C197.858 182.271 196.739 189.279 196.739 195.649L196.729 214.672L196.739 235.077C196.741 244.457 198.491 255.417 185.809 256.952C173.864 257.347 160.013 257.01 147.943 257.01L132.869 257.007C129.859 257.007 126.923 257.08 123.92 256.848C111.202 255.865 112.966 243.858 112.966 234.836L112.965 215.29L112.973 196.823C112.98 187.519 111.436 177.036 123.957 175.601ZM185.184 186.978C165.345 187.064 144.223 187.373 124.461 187.014C124.471 206.271 124.775 226.371 124.445 245.543C138.635 245.725 152.908 245.446 167.083 245.562C170.911 245.593 182.008 245.294 185.16 245.72L185.184 186.978Z" fill="white"/>
<path d="M248.323 0.418945C249.216 1.2854 301.318 123.575 306.58 135.803C298.32 132.098 287.385 128.353 278.768 125.023C268.94 121.225 258.308 116.812 248.469 113.309C245.82 114.015 241.884 115.683 239.194 116.73L223.997 122.61L203.04 130.629C199 132.176 193.865 134.043 189.982 135.822L229.699 43.2188L241.975 14.6611C243.405 11.3478 246.703 3.21364 248.323 0.418945ZM248.29 29.1006C244.429 36.9156 240.989 45.9586 237.411 53.9951C228.429 74.1671 220.157 95.3218 211.004 115.344C222.989 111.129 236.368 105.678 248.394 101.082C260.317 105.993 273.245 110.775 285.335 115.376C282.317 107.664 278.527 99.3729 275.229 91.709L256.478 48.0439C255.745 46.325 248.827 29.5122 248.29 29.1006Z" fill="#FF309B"/>
<path d="M280.275 175.537C284.123 175.533 287.953 175.676 291.81 175.61L291.793 256.9C287.673 257.048 282.513 257.115 278.43 256.89C269.45 247.251 259.995 236.056 251.303 226.044C241.089 214.491 230.982 202.844 220.983 191.104L220.946 256.888C217.117 256.98 213.287 257.005 209.458 256.965C209.775 230.07 209.472 202.474 209.48 175.521C213.167 175.714 219.075 175.634 222.76 175.552C229.34 182.56 236.157 190.594 242.553 197.854L280.548 240.949C280.245 219.146 280.153 197.341 280.275 175.537Z" fill="white"/>
<path d="M339.75 175.605C344.69 175.373 351.42 175.577 356.53 175.577L388.732 175.596C393.342 175.61 398.852 175.802 403.387 175.592C403.215 179.015 403.33 183.432 403.282 186.981C382.65 187.321 361.152 187.031 340.46 187.029L340.44 245.548C347.775 245.658 355.277 245.577 362.625 245.572L389.145 245.582C393.77 245.589 398.8 245.725 403.39 245.592C403.297 249.255 403.362 253.17 403.33 256.87C390.952 257.373 376.31 257.01 363.795 257.013H348.815C343.995 257.01 337.585 257.605 333.512 254.698C327.715 250.558 328.995 241.547 328.99 235.027L328.982 215.051L328.985 196.539C328.99 187.48 327.52 177.073 339.75 175.605Z" fill="white"/>
<path d="M22.8521 175.532C26.2388 175.649 30.0928 175.661 33.4743 175.583C56.0168 175.058 79.1808 176.312 101.649 175.598C101.535 179.255 101.638 183.215 101.564 186.956C90.4473 187.224 79.0666 186.767 67.9683 187.121L67.9731 223.125L67.9856 256.87C64.0778 257.005 60.4051 256.99 56.4898 256.958C56.8903 234.031 56.5056 210.029 56.5331 186.989L22.9478 187.024C22.8408 183.26 22.9014 179.318 22.8521 175.532Z" fill="white"/>
<path d="M304.55 175.523C308.087 175.659 312.487 175.64 316.02 175.615L316.035 237.011C316.037 239.578 316.36 255.82 315.687 256.842C312.21 257.075 308.115 256.987 304.582 256.985C304.825 252.252 304.657 246.324 304.657 241.479L304.645 212.991L304.65 188.878C304.652 184.921 304.817 179.379 304.55 175.523Z" fill="white"/>
</g>
<defs>
<clipPath id="clip0_2827_1234">
<rect width="495" height="258" fill="white"/>
</clipPath>
</defs>
</svg>
